<?xml version="1.0" encoding="UTF-8"?>
<svg id="Layer_1" data-name="Layer 1" xmlns="http://www.w3.org/2000/svg" viewBox="0 0 1523.37 1238.1">
  <defs>
    <style>
      .cls-1 {
        fill: #0a57a4;
      }

      .cls-2 {
        fill: #fff;
      }

      .cls-3 {
        fill: #dbad79;
      }
    </style>
  </defs>
  <path class="cls-2" d="M761.68,805.76c-222.15,0-402.88-180.73-402.88-402.88S539.53,0,761.68,0s402.88,180.73,402.88,402.88-180.73,402.88-402.88,402.88ZM761.68,2.8c-220.61,0-400.08,179.47-400.08,400.08s179.48,400.08,400.08,400.08,400.08-179.47,400.08-400.08S982.29,2.8,761.68,2.8Z"/>
  <g>
    <circle class="cls-2" cx="761.68" cy="402.88" r="392.27"/>
    <g>
      <path class="cls-1" d="M442.52,277.63l-23.69-22.98c-1.04-1.02-1.68-1.88-1.93-2.6-.25-.72-.18-1.53.22-2.43.44-.98,1.01-1.63,1.7-1.95.69-.31,1.79-.43,3.28-.36l32.91,2.3-2.17,4.9-7.55-.58-6.05,13.57,5.44,5.28-2.16,4.85ZM423.46,252.46l11.97,11.34,4.54-10.19-16.51-1.15Z"/>
      <path class="cls-1" d="M428.07,234.41c-.76-.39-1.27-.96-1.53-1.7-.26-.74-.2-1.47.18-2.2.39-.76.98-1.27,1.77-1.52.79-.25,1.55-.19,2.28.19.73.38,1.22.95,1.46,1.72.25.76.18,1.51-.2,2.25s-.95,1.22-1.72,1.46c-.77.25-1.52.18-2.25-.2ZM456.22,247.98l-22.82-11.78,1.94-3.75,22.82,11.77-1.94,3.76Z"/>
      <path class="cls-1" d="M460.93,239.02l-16.5-9.21c-2.05-1.14-3.29-2.38-3.74-3.72-.17-.67-.17-1.5,0-2.48.17-.98.46-1.86.9-2.63l1.18-2.11,3.77,2.1-1.02,1.82c-.77,1.38-.41,2.49,1.08,3.32l16.42,9.16-2.08,3.73Z"/>
      <path class="cls-1" d="M452.68,221.36l6.33-10.43,4.25,2.6-6.33,10.43-4.25-2.6Z"/>
      <path class="cls-1" d="M484.43,201.69l-5.56,8.1c-1.15,1.67-2.61,2.72-4.4,3.14-1.79.42-3.45.1-4.99-.95l-10.45-7.18c-1.07-.74-1.82-1.46-2.27-2.19-.44-.73-.63-1.61-.58-2.64-.03-1.63.47-3.19,1.49-4.68l5.54-8.06,3.52,2.41-5.54,8.06c-.48.7-.66,1.41-.53,2.11.13.7.55,1.3,1.25,1.78l9.2,6.32c.7.48,1.48.67,2.32.56s1.5-.5,1.97-1.19l5.51-8.02,3.52,2.42Z"/>
      <path class="cls-1" d="M491.13,192.93c-1.26,1.58-2.74,2.51-4.45,2.77-1.7.26-3.3-.2-4.79-1.38l-10.4-8.28c-1.46-1.16-2.24-2.55-2.33-4.16s.53-3.26,1.87-4.94l4.88-6.13c1.28-1.61,2.74-2.56,4.37-2.86,1.63-.3,3.17.12,4.61,1.26l10.44,8.3c1.41,1.13,2.18,2.57,2.32,4.33.13,1.76-.41,3.41-1.63,4.95l-4.88,6.13ZM483.52,190.15c.94.75,1.77,1.1,2.49,1.07.72-.03,1.41-.48,2.08-1.32l4.28-5.39c1.26-1.58,1.05-3.05-.63-4.39l-8.47-6.74c-1.61-1.28-3.05-1.13-4.31.45l-4.28,5.39c-1.26,1.58-1.09,3.02.52,4.3l8.32,6.62Z"/>
      <path class="cls-1" d="M503.87,177.27l-13.96-13.01c-1.64-1.53-2.41-3.26-2.3-5.19.08-1.44.87-2.95,2.36-4.55l4.63-4.97c1.49-1.6,2.96-2.5,4.4-2.71.94-.12,1.85-.02,2.75.29.9.32,1.76.86,2.6,1.64l13.96,13.01-2.88,3.09-13.55-12.62-.87-.81c-.23-.17-.58-.26-1.05-.26-.69.09-1.39.51-2.08,1.26l-4.7,5.04c-.76.82-1.13,1.52-1.11,2.1.02.58.41,1.23,1.17,1.94l13.55,12.62-2.91,3.13Z"/>
      <path class="cls-1" d="M514.54,118.47l18.29,19.88c1.35,1.47,2.04,3.14,2.07,5.03s-.59,3.41-1.87,4.59l-6.18,5.69c-.56.51-1.29.93-2.2,1.25-.91.32-1.81.46-2.7.43-1.52-.06-2.97-.84-4.34-2.33l-8.42-9.16c-1.42-1.54-2.07-3.12-1.95-4.75.11-1.63,1-3.21,2.65-4.73l7.3-6.71-5.78-6.29,3.14-2.89ZM520.58,149.93c.49.54,1.08.85,1.78.95.69.09,1.27-.07,1.73-.5l5.52-5.08c.63-.58.94-1.25.92-2.01-.01-.76-.33-1.48-.95-2.16l-7.62-8.28c-1.26-1.38-2.57-1.44-3.92-.2l-5.17,4.75c-1.37,1.27-1.41,2.61-.1,4.03l7.81,8.49Z"/>
      <path class="cls-1" d="M521.58,116.56c-.54-.66-.79-1.38-.74-2.16.05-.79.39-1.44,1.03-1.96.66-.55,1.4-.78,2.22-.7.83.08,1.5.44,2.02,1.07s.75,1.35.67,2.15c-.08.8-.43,1.46-1.07,1.99-.63.52-1.35.75-2.15.67-.8-.08-1.46-.43-1.99-1.07ZM542.13,140.1l-16.35-19.8,3.26-2.69,16.36,19.8-3.26,2.69Z"/>
      <path class="cls-1" d="M549.94,133.75l-20.98-27.04,3.38-2.62,5.24,6.75,3.45-2.68,2.62,3.38-3.45,2.68,13.12,16.92-3.38,2.62Z"/>
      <path class="cls-1" d="M539.53,102.4c-.5-.69-.7-1.42-.61-2.2.1-.78.48-1.4,1.15-1.89.69-.5,1.45-.69,2.26-.56.82.13,1.47.52,1.95,1.19.49.67.67,1.4.54,2.19-.13.8-.52,1.44-1.19,1.92-.67.48-1.4.66-2.19.54-.8-.13-1.44-.52-1.92-1.19ZM558.6,127.15l-15.12-20.76,3.41-2.49,15.12,20.76-3.41,2.49Z"/>
      <path class="cls-1" d="M572.32,117.52c-1.7,1.1-3.4,1.5-5.1,1.21-1.7-.3-3.07-1.24-4.1-2.83l-7.23-11.15c-1.01-1.57-1.31-3.13-.89-4.69.42-1.56,1.54-2.92,3.34-4.09l6.57-4.26c1.72-1.12,3.41-1.56,5.05-1.33,1.64.24,2.96,1.13,3.96,2.67l7.26,11.19c.98,1.51,1.25,3.13.82,4.85s-1.48,3.1-3.12,4.17l-6.57,4.26ZM565.98,112.46c.66,1.01,1.33,1.61,2.02,1.8.69.19,1.49,0,2.39-.59l5.78-3.74c1.7-1.1,1.96-2.56.79-4.37l-5.89-9.08c-1.12-1.72-2.53-2.03-4.23-.93l-5.78,3.75c-1.7,1.1-1.99,2.51-.87,4.24l5.79,8.92Z"/>
      <path class="cls-1" d="M589.39,106.72l-9.1-16.77c-1.07-1.98-1.25-3.86-.53-5.65.54-1.34,1.76-2.52,3.68-3.56l5.97-3.24c1.92-1.04,3.6-1.43,5.04-1.16.93.18,1.76.56,2.51,1.15.75.58,1.4,1.38,1.94,2.38l9.1,16.78-3.72,2.01-8.82-16.27-.57-1.04c-.16-.23-.47-.43-.91-.58-.69-.13-1.48.04-2.38.53l-6.05,3.28c-.98.54-1.55,1.08-1.72,1.64s0,1.29.49,2.21l8.82,16.28-3.75,2.04Z"/>
      <path class="cls-1" d="M615.63,64.73l14.11-5.62c1.09-.44,1.93-.67,2.53-.7.6-.03,1.28.12,2.05.46.76.34,1.45.81,2.04,1.41.6.6,1.05,1.27,1.35,2.04l4.88,12.26c.63,1.59.61,3.23-.08,4.94-.69,1.7-1.79,2.86-3.32,3.47l-7.98,3.18c-1.59.63-3.26.55-5.01-.26-1.75-.8-2.96-2.04-3.63-3.72l-1.14-2.87c-.95-2.38-1.16-4.42-.62-6.11.54-1.69,1.77-2.93,3.71-3.7l9.83-3.92-.61-1.55c-.45-1.11-1.46-1.36-3.05-.73l-13.5,5.38-1.58-3.97ZM628.29,82.27c.52.1,1.35-.08,2.5-.54l5.38-2.14c1.21-.48,1.91-.9,2.11-1.25.2-.36.32-.76.35-1.24.03-.47,0-.86-.13-1.15l-1.53-3.84c-.32-.79-.86-1.31-1.62-1.55-.76-.24-1.64-.16-2.64.23l-5.51,2.2c-.94.37-1.61.91-2.01,1.62-.4.7-.44,1.45-.13,2.25l1.53,3.84c.1.26.33.56.66.89s.68.56,1.04.68Z"/>
      <path class="cls-1" d="M650,78.92l-5.65-18.23c-.67-2.14-.47-4.03.58-5.64.79-1.21,2.22-2.13,4.31-2.78l6.48-2.01c2.09-.64,3.81-.7,5.17-.16.87.36,1.62.9,2.24,1.62.62.72,1.1,1.62,1.44,2.71l5.65,18.23-4.03,1.25-5.49-17.68-.35-1.14c-.11-.26-.38-.51-.78-.75-.65-.26-1.46-.24-2.44.06l-6.58,2.04c-1.07.33-1.73.75-2.01,1.27-.28.51-.26,1.27.05,2.27l5.49,17.69-4.08,1.26Z"/>
      <path class="cls-1" d="M688.66,33.17l5.95,26.35c.44,1.95.2,3.74-.7,5.39-.91,1.65-2.21,2.67-3.91,3.05l-8.2,1.85c-.74.17-1.58.16-2.53-.01s-1.8-.5-2.56-.98c-1.29-.81-2.16-2.2-2.6-4.18l-2.74-12.13c-.46-2.04-.23-3.74.67-5.09.91-1.36,2.46-2.28,4.65-2.78l9.68-2.19-1.88-8.34,4.17-.94ZM678.23,63.46c.16.71.52,1.28,1.07,1.71.55.43,1.13.57,1.75.43l7.32-1.65c.83-.19,1.43-.62,1.8-1.28s.45-1.45.25-2.34l-2.48-10.97c-.41-1.82-1.51-2.53-3.3-2.13l-6.85,1.55c-1.82.41-2.52,1.56-2.09,3.44l2.54,11.25Z"/>
      <path class="cls-1" d="M714.82,63.44l-3.47-34.05,17.19-1.75c2.14-.22,4.07.43,5.78,1.93.7.62,1.19,1.24,1.48,1.85s.48,1.46.6,2.56l.6,5.89c.17,1.73-.32,3.33-1.49,4.79-1.17,1.47-2.61,2.29-4.31,2.46l-5.76.58,13.99,13.22-6.56.67-13.72-12.97c-.46-.4-.73-.95-.8-1.65-.11-1.08.13-1.97.73-2.67.59-.7,1.46-1.11,2.58-1.22l7.44-.76c.85-.09,1.56-.43,2.13-1.02.57-.6.82-1.27.74-2.03l-.38-3.76c-.21-2.1-1.34-3.04-3.38-2.84l-11.44,1.16,2.97,29.09-4.91.5Z"/>
      <path class="cls-1" d="M765.01,60.3l-14.28.32c-2.12.05-3.83-.53-5.12-1.74-1.29-1.21-1.96-2.84-2.01-4.89l-.26-11.49c-.11-4.93,2.46-7.46,7.71-7.58l6.36-.14c2.15-.05,3.83.49,5.05,1.62,1.21,1.13,1.84,2.74,1.89,4.82l.07,3.04-16.58,8.16.02.85.17,1.09c.1.35.16.58.18.69.02.11.09.26.22.44.33.6,1.13.88,2.39.85l14.1-.31.1,4.27ZM747.61,42.52l.13,5.19,12.29-6.1v-.43c-.03-.82-.22-1.38-.59-1.69-.37-.31-1.06-.45-2.07-.43l-6.98.15c-1.9.04-2.82,1.14-2.78,3.31Z"/>
      <path class="cls-1" d="M769.76,60.55l.87-27.66c.07-2.12.91-3.82,2.52-5.1.61-.52,1.23-.86,1.85-1.03.62-.17,1.51-.24,2.67-.2l1.75.05-.14,4.32-1.74-.05c-1.72-.05-2.61.93-2.68,2.96l-.04,1.19,4.32.14-.14,4.27-4.32-.14-.68,21.4-4.27-.13Z"/>
      <path class="cls-1" d="M780.79,60.97l1.21-18.85c.15-2.34.73-4,1.75-4.98.54-.44,1.28-.8,2.23-1.07.95-.27,1.87-.38,2.75-.32l2.42.15-.28,4.31-2.08-.13c-1.58-.1-2.42.7-2.53,2.4l-1.2,18.76-4.26-.27Z"/>
      <path class="cls-1" d="M792.95,61.87l2.47-25.56,4.2.41-2.47,25.56-4.2-.4ZM795.1,30.69c.08-.85.42-1.53,1.01-2.05.59-.51,1.29-.73,2.11-.65.85.08,1.54.44,2.07,1.08.52.64.75,1.37.67,2.19s-.43,1.49-1.05,1.99c-.62.51-1.34.73-2.16.65-.82-.08-1.48-.43-2-1.05-.51-.62-.73-1.34-.65-2.16Z"/>
      <path class="cls-1" d="M801.53,71l.64-4.22,13.66,2.07c.84.13,1.35.19,1.51.18.16-.01.44-.14.83-.4.72-.53,1.15-1.27,1.29-2.2l.17-1.13-10.09-1.52c-1.88-.28-3.35-1.19-4.42-2.7-1.07-1.52-1.45-3.26-1.16-5.2l1.81-11.97c.28-1.88,1.09-3.35,2.42-4.41,1.33-1.06,2.85-1.46,4.58-1.2l8.97,1.35c1.84.28,3.21,1.05,4.09,2.32.88,1.27,1.17,2.86.89,4.76l-3.21,21.22c-.29,1.91-1.16,3.33-2.61,4.26-1.45.93-3.29,1.23-5.51.89l-13.85-2.09ZM808.25,56.12c-.14.91,0,1.68.42,2.32s1.03,1.02,1.84,1.14l7.42,1.12c1.56.24,2.5-.66,2.81-2.69l1.67-11.03c.29-1.91-.33-2.98-1.87-3.21l-7.14-1.08c-.94-.14-1.72,0-2.35.44s-1.01,1.09-1.14,1.97l-1.67,11.03Z"/>
      <path class="cls-1" d="M849.92,71.75l-13.92-3.22c-2.07-.48-3.58-1.46-4.53-2.95-.95-1.49-1.2-3.23-.74-5.23l2.59-11.19c1.11-4.81,4.23-6.62,9.35-5.44l6.2,1.43c2.1.49,3.59,1.43,4.49,2.82.9,1.39,1.11,3.1.64,5.14l-.68,2.96-18.08,3.81-.19.83-.11,1.1c.01.36.02.6,0,.7,0,.11.03.27.11.49.17.66.88,1.13,2.11,1.42l13.74,3.17-.96,4.16ZM837.45,50.22l-1.16,5.06,13.42-2.87.1-.42c.19-.8.13-1.4-.15-1.79-.28-.39-.92-.7-1.9-.93l-6.8-1.57c-1.85-.43-3.02.41-3.5,2.51Z"/>
      <path class="cls-1" d="M854.42,73.15l5.28-18.14c.65-2.25,1.58-3.74,2.78-4.48.62-.32,1.42-.5,2.41-.56.99-.05,1.91.04,2.76.28l2.32.68-1.21,4.15-2.01-.58c-1.52-.44-2.52.16-2.99,1.8l-5.25,18.05-4.1-1.2Z"/>
      <path class="cls-1" d="M874.09,52.1l14.33,5.05c1.1.39,1.89.77,2.37,1.14.48.37.89.93,1.24,1.69.35.76.55,1.57.61,2.41.05.84-.05,1.65-.33,2.43l-4.39,12.45c-.57,1.61-1.67,2.83-3.31,3.67-1.64.83-3.23.97-4.78.43l-8.1-2.86c-1.61-.57-2.81-1.73-3.6-3.49-.79-1.75-.89-3.49-.28-5.18l1.03-2.91c.85-2.41,2.04-4.09,3.55-5.01,1.52-.93,3.26-1.04,5.23-.34l9.98,3.52.55-1.57c.4-1.13-.2-1.98-1.82-2.55l-13.7-4.83,1.42-4.03ZM872.08,73.64c.32.42,1.07.83,2.23,1.23l5.46,1.93c1.22.43,2.03.58,2.41.45.38-.14.74-.37,1.08-.7.34-.33.56-.65.66-.95l1.37-3.9c.28-.81.22-1.55-.19-2.23-.42-.68-1.13-1.2-2.14-1.56l-5.59-1.97c-.96-.34-1.82-.37-2.58-.1s-1.29.8-1.57,1.61l-1.37,3.9c-.1.27-.12.64-.09,1.1.04.46.15.87.33,1.2Z"/>
      <path class="cls-1" d="M890.87,85.67l13.16-31.6,3.94,1.64-3.29,7.89,4.03,1.68-1.64,3.94-4.03-1.68-8.23,19.76-3.94-1.64Z"/>
      <path class="cls-1" d="M900.89,89.94l10.6-23.4,3.85,1.74-10.6,23.4-3.85-1.74ZM913,61.14c.35-.78.89-1.32,1.61-1.61.73-.3,1.46-.28,2.21.06.78.36,1.31.92,1.61,1.69.29.78.27,1.54-.07,2.28-.34.75-.89,1.27-1.64,1.55s-1.51.26-2.26-.08c-.75-.34-1.26-.89-1.55-1.64s-.26-1.51.08-2.26Z"/>
      <path class="cls-1" d="M916.05,97.13c-1.8-.93-2.99-2.21-3.57-3.84-.58-1.62-.43-3.28.44-4.96l6.14-11.79c.86-1.66,2.08-2.68,3.64-3.09,1.56-.4,3.3-.1,5.21.9l6.95,3.61c1.82.95,3.04,2.2,3.64,3.74.61,1.55.48,3.14-.36,4.76l-6.16,11.83c-.83,1.6-2.1,2.64-3.81,3.1-1.71.47-3.43.25-5.17-.66l-6.95-3.62ZM917.33,89.12c-.55,1.07-.75,1.95-.57,2.64.17.7.74,1.29,1.69,1.79l6.11,3.17c1.8.93,3.19.45,4.19-1.46l5-9.6c.95-1.82.53-3.2-1.27-4.14l-6.11-3.18c-1.8-.93-3.17-.49-4.12,1.34l-4.91,9.43Z"/>
      <path class="cls-1" d="M933.77,106.6l10.1-16.18c1.19-1.91,2.74-2.99,4.66-3.25,1.43-.19,3.07.29,4.92,1.45l5.76,3.6c1.85,1.15,3.02,2.43,3.5,3.81.3.89.38,1.81.24,2.75s-.51,1.9-1.11,2.86l-10.1,16.18-3.58-2.23,9.8-15.7.63-1.01c.13-.26.14-.62.06-1.08-.23-.66-.77-1.27-1.64-1.8l-5.84-3.65c-.95-.59-1.7-.82-2.27-.69-.57.13-1.13.64-1.68,1.52l-9.8,15.71-3.63-2.27Z"/>
      <path class="cls-1" d="M980.55,139.38l-7.72-6.08c-1.59-1.26-2.54-2.79-2.84-4.6-.31-1.81.12-3.45,1.28-4.92l7.84-9.95c.8-1.02,1.58-1.73,2.33-2.12.75-.39,1.64-.53,2.67-.4,1.63.08,3.16.67,4.57,1.79l7.68,6.05-2.64,3.36-7.68-6.05c-.67-.53-1.36-.75-2.07-.67s-1.33.46-1.86,1.13l-6.9,8.76c-.53.67-.76,1.43-.71,2.28.05.85.4,1.53,1.05,2.04l7.65,6.02-2.64,3.35Z"/>
      <path class="cls-1" d="M988.82,146.62c-1.5-1.37-2.32-2.9-2.48-4.62-.15-1.72.41-3.28,1.69-4.68l8.93-9.85c1.26-1.38,2.69-2.07,4.3-2.05s3.22.74,4.81,2.19l5.8,5.26c1.52,1.38,2.38,2.9,2.57,4.55.19,1.65-.33,3.15-1.56,4.51l-8.96,9.88c-1.21,1.34-2.7,2.02-4.47,2.03-1.77.02-3.38-.63-4.83-1.95l-5.8-5.26ZM992.09,139.2c-.81.89-1.22,1.69-1.23,2.41-.01.72.38,1.44,1.18,2.16l5.1,4.63c1.5,1.36,2.97,1.24,4.42-.35l7.27-8.02c1.38-1.52,1.32-2.97-.17-4.33l-5.1-4.63c-1.5-1.36-2.94-1.28-4.32.25l-7.15,7.87Z"/>
      <path class="cls-1" d="M1003.65,160.16l14.07-12.96c1.54-1.42,3.07-2.14,4.59-2.16,1.52-.03,2.92.64,4.19,2.02l2.64,2.86c.47.51.89,1.14,1.25,1.88.36.74.56,1.29.6,1.63.04.35,0,.89-.15,1.62l1.38-.04c1.27.21,2.48.95,3.64,2.2l2.61,2.82c2.66,2.88,2.38,5.81-.83,8.77l-14.07,12.96-2.93-3.17,13.89-12.8c1.19-1.1,1.22-2.26.08-3.5l-2.28-2.48c-.94-1.02-2.08-.92-3.41.31l-13.68,12.6-2.93-3.17,13.65-12.58c1.35-1.24,1.43-2.5.25-3.79l-2.31-2.51c-.6-.65-1.17-.99-1.71-1.01-.54-.02-1.13.27-1.78.87l-13.86,12.77-2.89-3.14Z"/>
      <path class="cls-1" d="M1020.29,191.12l21.8-16.73c1.68-1.29,3.32-1.82,4.91-1.59,1.59.23,3.04,1.19,4.33,2.87l4.91,6.4c1.29,1.68,1.87,3.32,1.72,4.93-.14,1.61-1.01,3.02-2.59,4.23l-9.75,7.49c-1.61,1.23-3.34,1.76-5.18,1.59-1.85-.17-3.34-1.01-4.48-2.49l-6.45-8.4-6.63,5.09-2.6-3.39ZM1035.24,185.02c-.65.5-1.07,1.1-1.25,1.8-.18.7-.06,1.32.36,1.88l4.94,6.44c.44.58.99.9,1.63.96.65.06,1.27-.14,1.87-.6l9.64-7.4c1.28-.98,1.47-2.07.56-3.25l-4.65-6.06c-1.23-1.61-2.54-1.88-3.92-.82l-9.19,7.05Z"/>
      <path class="cls-1" d="M1064.61,193.43l8.29,12.74c.64.98,1.03,1.76,1.19,2.34.15.58.13,1.28-.05,2.1-.19.82-.51,1.58-.98,2.28-.47.7-1.05,1.28-1.74,1.73l-11.06,7.2c-1.43.93-3.05,1.23-4.86.89-1.8-.33-3.16-1.19-4.05-2.57l-4.69-7.2c-.93-1.43-1.18-3.09-.73-4.96.44-1.87,1.42-3.3,2.93-4.28l2.59-1.68c2.15-1.4,4.11-2,5.87-1.81,1.77.19,3.22,1.16,4.36,2.91l5.78,8.87,1.39-.91c1.01-.66,1.05-1.7.11-3.14l-7.92-12.17,3.58-2.33ZM1049.89,209.29c0,.53.34,1.31,1.02,2.34l3.16,4.85c.71,1.09,1.25,1.7,1.64,1.82.38.13.81.16,1.28.1s.84-.17,1.1-.35l3.46-2.25c.72-.46,1.12-1.1,1.21-1.89s-.16-1.64-.75-2.54l-3.24-4.98c-.55-.85-1.21-1.4-1.98-1.65-.77-.26-1.51-.15-2.23.32l-3.46,2.25c-.24.15-.48.43-.74.82-.25.39-.41.78-.47,1.15Z"/>
      <path class="cls-1" d="M1057.52,230.02l16.76-9.12c1.98-1.08,3.86-1.26,5.65-.54,1.34.54,2.52,1.76,3.57,3.68l3.25,5.96c1.05,1.92,1.44,3.6,1.18,5.04-.18.92-.56,1.76-1.14,2.51-.58.75-1.37,1.4-2.37,1.95l-16.76,9.12-2.02-3.71,16.26-8.86,1.04-.57c.23-.16.43-.46.58-.91.13-.69-.05-1.48-.54-2.38l-3.29-6.05c-.54-.98-1.08-1.55-1.64-1.72-.56-.17-1.3,0-2.22.5l-16.26,8.86-2.04-3.75Z"/>
      <path class="cls-1" d="M1062.44,256.92l3.9-1.74,5.82,13c.71,1.59,1.89,2.02,3.53,1.28l1.26-.56-4.36-9.75c-.72-1.62-.78-3.21-.16-4.77.62-1.56,1.74-2.7,3.35-3.43l17.72-7.93,1.75,3.9-16.64,7.45c-1.93.87-2.49,2.21-1.68,4.03l2.73,6.11c.79,1.76,2.01,2.27,3.65,1.54l17.07-7.64,1.75,3.9-24.48,10.95c-2.08.93-3.94,1.12-5.57.57s-2.88-1.78-3.73-3.69l-5.91-13.22Z"/>
    </g>
    <g>
      <g>
        <path class="cls-1" d="M581.56,437.26s-23.17,0-13.16-26.33c10-26.33,11.06-30.01,14.22-33.17,3.16-3.16,11.37-10.48,30.82-17.21l19.2-4.99s31.42-11.47,17.7-45.63c0,0-12.64-21.08-24.58-37.8,0,0-37.88-68.59,10.24-148.09,0,0,7.85,42.65,54.94,84.62,0,0,45.72,39.58,44.02,66.54,0,0,.68,31.05-42.31,61.76,0,0-31.73,20.81-63.81,23.54,0,0-41.97,12.28-45.72,24.57,0,0-11.94,23.2,1.02,16.72,0,0-.04,6.94,8.98,6.27,0,0,6.18-5.85,8.52-2.51l.5,6.68s16.71-8.36,28.41-5.85c0,0,15.04,3.18,16.71,4.01,0,0,.33,2.17-5.35,2.17,0,0,27.07,9.02,37.77,14.54,0,0-4.68-7.52-18.38-12.7,0,0,19.05,0,29.58,3.51l-32.59-23.9s4.51-4.35,17.38,1.67c0,0,16.71,9.02,24.57,4.35,0,0-22.9-21.22-48.13-23.9,0,0,32.09-4.68,32.76-15.88,0,0-15.04,6.52-31.59,2.34,0,0,66.14-13.22,88.4-85.95,0,0,2.23-45.27,64.57-82.38l128.43-61.93s25.09-11.55,27.88-15.93c0,0,12.35,35.45-27.08,55.36,0,0-54.97,23.1-61.34,35.05,0,0,44.21-24.3,80.06-29.08l-5.97,45.01s-.8,27.48-35.45,30.27c0,0-48.99,7.97-57.75,21.51l84.44-17.92s-12.35,32.66-14.34,35.85c-1.71,2.73-12.49,13.66-27.07,19.48-4.22,1.69-8.77,2.37-13.31,2.5-10.72.31-33.57,1.79-42.86,8.69,0,0,60.54-2.79,62.93-3.98l-26.69,29.47s-6.77,12.75-31.86,12.35c0,0-43.9-1.94-52.04,7.3,0,0,43.44-5.36,58.41.18,0,0-10.35,13.86-46.21,19.59,0,0-36.78,5.91-36.04,23.66.74,17.74,23.66,24.21,35.49,24.03,11.83-.18,27.36-2.03,32.35-5.36,4.99-3.33,4.62,2.59,2.22,2.77-2.4.18-22.18,12.38-25.14,12.57,0,0,12.2,13.12,46.21-1.85,0,0,23.66-12.75,26.06-17.56,0,0-3.7,14.23-5.73,17.93,0,0,33.82-13.49,42.33-18.48,0,0-3.7,19.41-28.65,36.6,0,0,17.93-3.88,22.55-6.84,0,0-5.18,13.86-29.39,26.8,0,0,9.07,2,13.9-.9,0,0-2.18,26.36-62.88,24.18,0,0,17.65,8.46,36.52,4.35,0,0-28.78,23.7-83.2,13.3l1.69,5.56-33.86-15.96s-1.45.97.97,4.6c0,0-.73,8.71-11.13-7.98,0,0-3.63-15.24-16.2-16.45,0,0,.48,26.85-4.84,31.92,0,0-3.14-1.45-2.9-13.06,0,0-13.79,26.85-16.2,29.51,0,0-.24-5.56.48-10.4,0,0-21.77,8.46-37.24,1.45,0,0-11.61-1.21-14.99,6.77,0,0,10.4,15.24,2.18,23.7,0,0-7.26-3.63-13.3-24.18,0,0-12.33,9.43-18.62,1.93,0,0-3.63-3.63-9.19-.48,0,0,4.35-7.5,12.09-7.74,0,0-6.77-4.6-10.64-10.88,0,0-7.5-4.11-11.13,0,0,0,8.22-12.09,20.8-2.9,0,0,10.16,10.64,28.3,4.11,0,0,24.43-12.82,25.88-36.76,0,0,2.18,3.87,1.93,13.3,0,0,6.05-14.51,6.05-25.88,0,0,3.87,5.8,4.6,14.99,0,0,6.29-18.14-.73-28.05,0,0-11.61,20.56-30.23,25.88,0,0-22.01,3.14-16.69,11.61,0,0,11.37,11.85,6.05,21.52l-16.93-17.9-22.01,5.8,7.01-12.09-19.35-6.53s3.39-9.43,16.69-3.14c0,0,35.55,5.08,35.55-30.96l7.26,9.43-4.11-9.92,7.74,3.39-7.5-11.37,10.4,4.35s-16.2-34.83-50.55-36.28c0,0-38.36-1.72-38.77,23.08Z"/>
        <path class="cls-1" d="M586.2,399.44s9.13-10.59,9.31-12.96c0,0,2.37,8.22-2.01,12.41,0,0-8.58,5.84-7.3.55Z"/>
      </g>
      <g>
        <path class="cls-3" d="M622.44,671.79h-51.14c-3.69,0-6.77-1.2-9.26-3.6-2.49-2.4-3.73-5.39-3.73-8.99,0-2.49.87-4.98,2.61-7.47l46.14-65.09h-47.51v-14.51h52.38c3.5,0,6.33,1.08,8.5,3.25,2.16,2.17,3.25,5,3.25,8.5,0,2.76-.88,5.39-2.63,7.88l-46.44,65.51h47.82v14.51Z"/>
        <path class="cls-1" d="M626.58,671.79l33.03-90.25c1.47-3.96,3.02-6.7,4.63-8.22s3.85-2.28,6.7-2.28c3.13,0,5.53.74,7.19,2.21,1.66,1.48,3.27,4.24,4.84,8.29l32.89,90.25-15.58.04-7.42-20.77h-43.24l-7.58,20.73h-15.46ZM670.92,591.26l-15.99,45.28h32.49l-16.5-45.28Z"/>
        <path class="cls-1" d="M723.47,671.79v-99.65h50.31c6.27,0,11.66,2.44,16.17,7.3,1.84,2.02,3.08,3.96,3.73,5.79.64,1.84.97,4.37.97,7.58v17.24c0,5.05-1.91,9.53-5.74,13.44-3.82,3.91-8.22,5.86-13.2,5.86h-16.86l36.63,42.43-19.19-.02-35.92-41.61c-1.22-1.3-1.83-2.97-1.83-5.01,0-3.15.96-5.66,2.89-7.52,1.93-1.85,4.55-2.78,7.85-2.78h21.76c2.48,0,4.64-.78,6.47-2.34,1.84-1.56,2.76-3.44,2.76-5.64v-11c0-6.14-2.98-9.22-8.95-9.22h-33.48v85.14h-14.37Z"/>
        <path class="cls-1" d="M874.26,671.79h-42.71c-6.08,0-11.24-2.35-15.48-7.05-4.24-4.7-6.36-10.32-6.36-16.86v-51.14c0-7.37,2.07-13.31,6.22-17.83,4.15-4.51,9.67-6.77,16.58-6.77h42.02v14.51h-40.08c-6.91,0-10.36,3.46-10.36,10.36v49.62c0,3.04.97,5.58,2.9,7.6,1.94,2.03,4.42,3.04,7.46,3.04h39.8v14.51Z"/>
        <path class="cls-1" d="M919.45,671.79c-7,0-12.03-.46-15.07-1.38-3.04-.92-5.94-2.9-8.71-5.94-4.33-4.61-6.5-11.47-6.5-20.59v-43.81c0-4.98.48-8.96,1.45-11.95.97-2.99,2.72-5.92,5.25-8.78,2.53-2.85,5.39-4.76,8.57-5.73,3.18-.97,8.18-1.45,14.99-1.45h10.78c7.09,0,12.09.46,15,1.38,2.9.92,5.83,2.9,8.78,5.94,4.42,4.7,6.63,11.56,6.63,20.59v43.81c0,4.98-.46,8.96-1.38,11.95-.92,2.99-2.69,5.92-5.32,8.78-2.63,2.85-5.53,4.76-8.71,5.73-3.18.97-8.18,1.45-15,1.45h-10.78ZM903.56,644.56c0,4.97.92,8.34,2.76,10.09,1.84,1.75,5.48,2.63,10.92,2.63h15.34c5.34,0,8.96-.85,10.85-2.56,1.89-1.7,2.83-5.05,2.83-10.02v-45.34c0-4.79-.97-8.1-2.9-9.95-1.94-1.84-5.53-2.76-10.78-2.76h-15.34c-5.25,0-8.85.88-10.78,2.63-1.93,1.75-2.9,5.11-2.9,10.09v45.2Z"/>
      </g>
    </g>
  </g>
  <g>
    <g>
      <path class="cls-2" d="M177.62,1091.17h-102.11l-16.9,48.85H4.62l92.19-256.75h59.87l92.19,256.75h-54.36l-16.9-48.85ZM126.57,942.78l-37.1,107.25h74.2l-37.1-107.25Z"/>
      <path class="cls-2" d="M283.39,868.21h51.42v271.81h-51.42v-271.81Z"/>
      <path class="cls-3" d="M640.78,923.31l-115.33,173.37h115.33v43.34h-174.84v-39.67l114.6-173.37h-114.6v-43.34h174.84v39.67Z"/>
      <path class="cls-2" d="M764.18,933.23c32.69,0,55.1,15.42,67.22,32.32v-29.02h51.79v203.49h-51.79v-29.75c-12.12,17.63-35.26,33.06-67.58,33.06-51.42,0-92.56-42.24-92.56-105.78s41.14-104.32,92.93-104.32ZM777.4,978.41c-27.55,0-53.63,20.57-53.63,59.14s26.08,60.61,53.63,60.61,53.99-21.3,53.99-59.87-25.71-59.87-53.99-59.87Z"/>
      <path class="cls-2" d="M933.49,868.21h51.42v93.66c13.22-17.26,36-28.28,63.18-28.28,45.91,0,79.34,30.85,79.34,87.05v119.37h-51.42v-112.4c0-32.69-18-50.32-45.18-50.32s-45.91,17.63-45.91,50.32v112.4h-51.42v-271.81Z"/>
      <path class="cls-2" d="M1227.69,1140.02h-51.42v-203.49h51.42v31.59c12.85-20.94,34.16-34.53,62.44-34.53v53.99h-13.59c-30.49,0-48.85,11.76-48.85,51.06v101.38Z"/>
      <path class="cls-2" d="M1404.36,933.23c32.69,0,55.1,15.42,67.22,32.32v-29.02h51.79v203.49h-51.79v-29.75c-12.12,17.63-35.26,33.06-67.58,33.06-51.42,0-92.56-42.24-92.56-105.78s41.14-104.32,92.93-104.32ZM1417.58,978.41c-27.55,0-53.63,20.57-53.63,59.14s26.08,60.61,53.63,60.61,53.99-21.3,53.99-59.87-25.71-59.87-53.99-59.87Z"/>
    </g>
    <g>
      <path class="cls-2" d="M33.14,1228.25H13.58l-3.24,9.36H0l17.66-49.18h11.47l17.66,49.18h-10.41l-3.24-9.36ZM23.36,1199.83l-7.11,20.54h14.21l-7.11-20.54Z"/>
      <path class="cls-2" d="M53.41,1188.5h9.85v49.11h-9.85v-49.11Z"/>
      <path class="cls-2" d="M91.4,1188.5c11.82,0,17.73,6.83,17.73,15.06,0,5.98-3.31,12.03-11.19,14.14l11.75,19.91h-11.4l-10.83-19.14h-4.65v19.14h-9.85v-49.11h18.44ZM91.05,1196.66h-8.23v14.42h8.23c5.49,0,7.95-2.89,7.95-7.32s-2.46-7.1-7.95-7.1Z"/>
      <path class="cls-2" d="M157.34,1187.87c10.9,0,19.77,5.84,23.08,15.9h-11.33c-2.32-4.71-6.54-7.04-11.82-7.04-8.58,0-14.71,6.26-14.71,16.26s6.12,16.25,14.71,16.25c5.28,0,9.5-2.32,11.82-7.11h11.33c-3.31,10.13-12.17,15.9-23.08,15.9-14.14,0-24.91-10.34-24.91-25.04s10.77-25.12,24.91-25.12Z"/>
      <path class="cls-2" d="M211.66,1238.1c-13.86,0-25.19-10.41-25.19-25.19s11.33-25.12,25.19-25.12,25.12,10.41,25.12,25.12-11.19,25.19-25.12,25.19ZM211.66,1229.31c8.86,0,14.99-6.41,14.99-16.39s-6.12-16.25-14.99-16.25-15.06,6.26-15.06,16.25,6.12,16.39,15.06,16.39Z"/>
      <path class="cls-2" d="M286.1,1188.43v49.18h-9.85l-22.3-33.7v33.7h-9.85v-49.18h9.85l22.3,33.77v-33.77h9.85Z"/>
      <path class="cls-2" d="M338.88,1213.12c0,14.84-10.2,24.48-25.89,24.48h-17.17v-49.11h17.17c15.69,0,25.89,9.71,25.89,24.63ZM312.63,1229.24c10.34,0,16.18-5.91,16.18-16.11s-5.84-16.32-16.18-16.32h-6.96v32.44h6.96Z"/>
      <path class="cls-2" d="M346.27,1188.5h9.85v49.11h-9.85v-49.11Z"/>
      <path class="cls-2" d="M363.23,1188.5h36.02v7.95h-13.09v41.16h-9.85v-41.16h-13.09v-7.95Z"/>
      <path class="cls-2" d="M406.43,1188.5h9.85v49.11h-9.85v-49.11Z"/>
      <path class="cls-2" d="M448.79,1238.1c-13.86,0-25.19-10.41-25.19-25.19s11.33-25.12,25.19-25.12,25.12,10.41,25.12,25.12-11.19,25.19-25.12,25.19ZM448.79,1229.31c8.86,0,14.99-6.41,14.99-16.39s-6.12-16.25-14.99-16.25-15.06,6.26-15.06,16.25,6.12,16.39,15.06,16.39Z"/>
      <path class="cls-2" d="M523.23,1188.43v49.18h-9.85l-22.3-33.7v33.7h-9.85v-49.18h9.85l22.3,33.77v-33.77h9.85Z"/>
      <path class="cls-2" d="M532.95,1188.5h9.85v49.11h-9.85v-49.11Z"/>
      <path class="cls-2" d="M594.51,1188.43v49.18h-9.85l-22.3-33.7v33.7h-9.85v-49.18h9.85l22.3,33.77v-33.77h9.85Z"/>
      <path class="cls-2" d="M649.75,1203.27h-11.33c-2.25-4.15-6.33-6.33-11.54-6.33-8.79,0-14.92,6.26-14.92,16.04s6.19,16.18,15.34,16.18c7.6,0,12.45-4.36,13.93-11.33h-16.89v-7.53h26.6v8.58c-1.97,9.99-10.9,19.14-23.99,19.14-14.28,0-25.12-10.34-25.12-25.04s10.84-25.12,25.05-25.12c10.98,0,19.7,5.56,22.87,15.41Z"/>
      <path class="cls-2" d="M705.13,1228.25h-19.56l-3.23,9.36h-10.35l17.66-49.18h11.47l17.66,49.18h-10.41l-3.23-9.36ZM695.35,1199.83l-7.11,20.54h14.21l-7.1-20.54Z"/>
      <path class="cls-2" d="M767.4,1188.43v49.18h-9.85l-22.3-33.7v33.7h-9.85v-49.18h9.85l22.3,33.77v-33.77h9.85Z"/>
      <path class="cls-2" d="M820.18,1213.12c0,14.84-10.2,24.48-25.89,24.48h-17.17v-49.11h17.17c15.69,0,25.89,9.71,25.89,24.63ZM793.93,1229.24c10.34,0,16.18-5.91,16.18-16.11s-5.84-16.32-16.18-16.32h-6.96v32.44h6.96Z"/>
      <path class="cls-2" d="M862.75,1188.5c11.82,0,17.73,6.83,17.73,15.06,0,5.98-3.31,12.03-11.19,14.14l11.75,19.91h-11.4l-10.84-19.14h-4.64v19.14h-9.85v-49.11h18.43ZM862.4,1196.66h-8.23v14.42h8.23c5.49,0,7.95-2.89,7.95-7.32s-2.46-7.1-7.95-7.1Z"/>
      <path class="cls-2" d="M917.92,1196.45h-18.65v12.31h16.53v7.81h-16.53v13.01h18.65v8.02h-28.5v-49.18h28.5v8.02Z"/>
      <path class="cls-2" d="M926.86,1188.5h30.32v7.95h-20.47v12.6h15.69v7.81h-15.69v20.75h-9.85v-49.11Z"/>
      <path class="cls-2" d="M982.58,1188.5c11.82,0,17.73,6.83,17.73,15.06,0,5.98-3.31,12.03-11.19,14.14l11.75,19.91h-11.4l-10.84-19.14h-4.64v19.14h-9.85v-49.11h18.43ZM982.23,1196.66h-8.23v14.42h8.23c5.49,0,7.95-2.89,7.95-7.32s-2.46-7.1-7.95-7.1Z"/>
      <path class="cls-2" d="M1009.26,1188.5h9.85v49.11h-9.85v-49.11Z"/>
      <path class="cls-2" d="M1074.34,1203.27h-11.33c-2.25-4.15-6.33-6.33-11.54-6.33-8.8,0-14.92,6.26-14.92,16.04s6.19,16.18,15.34,16.18c7.6,0,12.45-4.36,13.93-11.33h-16.89v-7.53h26.6v8.58c-1.97,9.99-10.91,19.14-23.99,19.14-14.28,0-25.12-10.34-25.12-25.04s10.84-25.12,25.05-25.12c10.98,0,19.7,5.56,22.87,15.41Z"/>
      <path class="cls-2" d="M1111.35,1196.45h-18.64v12.31h16.53v7.81h-16.53v13.01h18.64v8.02h-28.49v-49.18h28.49v8.02Z"/>
      <path class="cls-2" d="M1138.72,1188.5c11.82,0,17.73,6.83,17.73,15.06,0,5.98-3.31,12.03-11.19,14.14l11.75,19.91h-11.4l-10.84-19.14h-4.64v19.14h-9.85v-49.11h18.43ZM1138.37,1196.66h-8.23v14.42h8.23c5.49,0,7.95-2.89,7.95-7.32s-2.46-7.1-7.95-7.1Z"/>
      <path class="cls-2" d="M1195.51,1228.25h-19.56l-3.23,9.36h-10.35l17.66-49.18h11.47l17.66,49.18h-10.41l-3.23-9.36ZM1185.73,1199.83l-7.11,20.54h14.21l-7.1-20.54Z"/>
      <path class="cls-2" d="M1213.17,1188.5h36.02v7.95h-13.09v41.16h-9.85v-41.16h-13.09v-7.95Z"/>
      <path class="cls-2" d="M1256.38,1188.5h9.85v49.11h-9.85v-49.11Z"/>
      <path class="cls-2" d="M1298.74,1238.1c-13.86,0-25.19-10.41-25.19-25.19s11.33-25.12,25.19-25.12,25.11,10.41,25.11,25.12-11.19,25.19-25.11,25.19ZM1298.74,1229.31c8.86,0,14.98-6.41,14.98-16.39s-6.12-16.25-14.98-16.25-15.06,6.26-15.06,16.25,6.12,16.39,15.06,16.39Z"/>
      <path class="cls-2" d="M1373.18,1188.43v49.18h-9.85l-22.3-33.7v33.7h-9.85v-49.18h9.85l22.3,33.77v-33.77h9.85Z"/>
      <path class="cls-2" d="M1422.16,1187.87c10.9,0,19.77,5.84,23.08,15.9h-11.33c-2.32-4.71-6.54-7.04-11.82-7.04-8.59,0-14.71,6.26-14.71,16.26s6.12,16.25,14.71,16.25c5.28,0,9.5-2.32,11.82-7.11h11.33c-3.31,10.13-12.17,15.9-23.08,15.9-14.14,0-24.91-10.34-24.91-25.04s10.77-25.12,24.91-25.12Z"/>
      <path class="cls-2" d="M1476.48,1238.1c-13.86,0-25.19-10.41-25.19-25.19s11.33-25.12,25.19-25.12,25.12,10.41,25.12,25.12-11.19,25.19-25.12,25.19ZM1476.48,1229.31c8.86,0,14.99-6.41,14.99-16.39s-6.12-16.25-14.99-16.25-15.06,6.26-15.06,16.25,6.12,16.39,15.06,16.39Z"/>
      <path class="cls-2" d="M1513.28,1238.1c-3.59,0-6.12-2.53-6.12-5.77s2.53-5.77,6.12-5.77,5.98,2.53,5.98,5.77-2.53,5.77-5.98,5.77Z"/>
    </g>
  </g>
</svg>