<?xml version="1.0" encoding="UTF-8"?>
<svg id="Layer_1" xmlns="http://www.w3.org/2000/svg" version="1.1" viewBox="0 0 612.96 144.24">
  <!-- Generator: Adobe Illustrator 30.0.0, SVG Export Plug-In . SVG Version: 2.1.1 Build 123)  -->
  <defs>
    <style>
      .st0 {
        fill: #fff;
      }

      .st1 {
        fill: #0054a5;
      }

      .st2 {
        fill: #dbad79;
      }
    </style>
  </defs>
  <path class="st1" d="M89.11,140.58c-37.75,0-68.46-30.71-68.46-68.46S51.36,3.66,89.11,3.66s68.46,30.71,68.46,68.46-30.71,68.46-68.46,68.46ZM89.11,4.13c-37.49,0-67.99,30.5-67.99,67.99s30.5,67.99,67.99,67.99,67.99-30.5,67.99-67.99S126.6,4.13,89.11,4.13Z"/>
  <g>
    <circle class="st1" cx="89.11" cy="72.12" r="66.66"/>
    <g>
      <path class="st0" d="M34.87,50.83l-4.03-3.91c-.18-.17-.29-.32-.33-.44-.04-.12-.03-.26.04-.41.07-.17.17-.28.29-.33.12-.05.3-.07.56-.06l5.59.39-.37.83-1.28-.1-1.03,2.31.92.9-.37.82h0ZM31.63,46.56l2.03,1.93.77-1.73-2.81-.2h0Z"/>
      <path class="st0" d="M32.41,43.49c-.13-.07-.22-.16-.26-.29-.04-.13-.03-.25.03-.37.07-.13.17-.22.3-.26.13-.04.26-.03.39.03.12.06.21.16.25.29s.03.26-.03.38-.16.21-.29.25-.26.03-.38-.03h0ZM37.2,45.8l-3.88-2,.33-.64,3.88,2-.33.64Z"/>
      <path class="st0" d="M38,44.27l-2.8-1.56c-.35-.19-.56-.4-.64-.63-.03-.11-.03-.26,0-.42.03-.17.08-.32.15-.45l.2-.36.64.36-.17.31c-.13.23-.07.42.18.56l2.79,1.56s-.35.63-.35.63Z"/>
      <path class="st0" d="M36.6,41.27l1.08-1.77.72.44-1.08,1.77-.72-.44Z"/>
      <path class="st0" d="M41.99,37.93l-.95,1.38c-.19.28-.44.46-.75.53-.3.07-.59.02-.85-.16l-1.78-1.22c-.18-.13-.31-.25-.39-.37s-.11-.27-.1-.45c0-.28.08-.54.25-.79l.94-1.37.6.41-.94,1.37c-.08.12-.11.24-.09.36s.09.22.21.3l1.56,1.07c.12.08.25.11.39.09s.25-.09.33-.2l.94-1.36.6.41h.03Z"/>
      <path class="st0" d="M43.13,36.44c-.21.27-.47.43-.76.47s-.56-.03-.81-.23l-1.77-1.41c-.25-.2-.38-.43-.4-.71s.09-.55.32-.84l.83-1.04c.22-.27.47-.44.74-.49.28-.05.54.02.78.21l1.77,1.41c.24.19.37.44.39.74s-.07.58-.28.84l-.83,1.04h.02ZM41.84,35.97c.16.13.3.19.42.18.12,0,.24-.08.35-.22l.73-.92c.21-.27.18-.52-.11-.75l-1.44-1.14c-.27-.22-.52-.19-.73.08l-.73.92c-.21.27-.18.51.09.73l1.41,1.13h.01Z"/>
      <path class="st0" d="M45.3,33.78l-2.37-2.21c-.28-.26-.41-.55-.39-.88,0-.24.15-.5.4-.77l.79-.84c.25-.27.5-.43.75-.46.16-.02.31,0,.47.05.15.05.3.15.44.28l2.37,2.21-.49.53-2.3-2.14-.15-.14s-.1-.04-.18-.04c-.12.02-.24.09-.35.21l-.8.86c-.13.14-.19.26-.19.36s.07.21.2.33l2.3,2.14-.49.53v-.02Z"/>
      <path class="st0" d="M47.11,23.79l3.11,3.38c.23.25.35.53.35.85s-.1.58-.32.78l-1.05.97c-.09.09-.22.16-.37.21-.15.05-.31.08-.46.07-.26-.01-.5-.14-.74-.4l-1.43-1.56c-.24-.26-.35-.53-.33-.81.02-.28.17-.55.45-.8l1.24-1.14-.98-1.07.53-.49h0ZM48.13,29.13c.08.09.18.14.3.16s.22-.01.29-.09l.94-.86c.11-.1.16-.21.16-.34s-.06-.25-.16-.37l-1.29-1.41c-.21-.23-.44-.25-.67-.03l-.88.81c-.23.22-.24.44-.02.68l1.33,1.44h0Z"/>
      <path class="st0" d="M48.3,23.46c-.09-.11-.13-.23-.13-.37,0-.13.07-.24.18-.33s.24-.13.38-.12c.14.01.25.07.34.18s.13.23.11.37c0,.14-.07.25-.18.34s-.23.13-.37.11c-.14-.01-.25-.07-.34-.18h0ZM51.8,27.46l-2.78-3.36.55-.46,2.78,3.36-.55.46Z"/>
      <path class="st0" d="M53.12,26.39l-3.56-4.6.57-.44.89,1.15.59-.45.45.57-.59.45,2.23,2.87-.57.44h0Z"/>
      <path class="st0" d="M51.35,21.06c-.09-.12-.12-.24-.1-.37.02-.13.08-.24.19-.32.12-.09.25-.12.38-.1.14.02.25.09.33.2s.11.24.09.37c-.02.14-.09.24-.2.33-.11.08-.24.11-.37.09-.14-.02-.24-.09-.33-.2h0ZM54.6,25.26l-2.57-3.53.58-.42,2.57,3.53-.58.42Z"/>
      <path class="st0" d="M56.93,23.63c-.29.19-.58.26-.87.21-.29-.05-.52-.21-.7-.48l-1.23-1.89c-.17-.27-.22-.53-.15-.8s.26-.5.57-.7l1.12-.72c.29-.19.58-.27.86-.23s.5.19.67.45l1.23,1.9c.17.26.21.53.14.82s-.25.53-.53.71l-1.12.72h.01ZM55.85,22.77c.11.17.23.27.34.31s.25,0,.41-.1l.98-.64c.29-.19.33-.43.13-.74l-1-1.54c-.19-.29-.43-.35-.72-.16l-.98.64c-.29.19-.34.43-.15.72l.98,1.52h.01Z"/>
      <path class="st0" d="M59.83,21.79l-1.55-2.85c-.18-.34-.21-.66-.09-.96.09-.23.3-.43.63-.61l1.01-.55c.33-.18.61-.24.86-.2.16.03.3.1.43.19.13.1.24.23.33.4l1.55,2.85-.63.34-1.5-2.76-.1-.18s-.08-.07-.16-.1c-.12-.02-.25,0-.4.09l-1.03.56c-.17.09-.26.18-.29.28s0,.22.08.38l1.5,2.77s-.64.35-.64.35Z"/>
      <path class="st0" d="M64.29,14.66l2.4-.95c.18-.07.33-.11.43-.12.1,0,.22.02.35.08.13.06.25.14.35.24.1.1.18.22.23.35l.83,2.08c.11.27.1.55-.01.84-.12.29-.3.49-.56.59l-1.36.54c-.27.11-.55.09-.85-.04-.3-.14-.5-.35-.62-.63l-.19-.49c-.16-.4-.2-.75-.11-1.04.09-.29.3-.5.63-.63l1.67-.67-.1-.26c-.08-.19-.25-.23-.52-.12l-2.29.91-.27-.67h-.01ZM66.44,17.64c.09.02.23-.01.42-.09l.91-.36c.21-.08.32-.15.36-.21.03-.06.05-.13.06-.21,0-.08,0-.15-.02-.19l-.26-.65c-.05-.13-.15-.22-.27-.26-.13-.04-.28-.03-.45.04l-.94.37c-.16.06-.27.16-.34.27-.07.12-.08.25-.02.38l.26.65s.06.09.11.15.12.09.18.12h0Z"/>
      <path class="st0" d="M70.13,17.07l-.96-3.1c-.11-.36-.08-.68.1-.96.13-.21.38-.36.73-.47l1.1-.34c.35-.11.65-.12.88-.03.15.06.28.15.38.27.11.12.19.28.24.46l.96,3.1-.69.21-.93-3-.06-.19s-.06-.09-.13-.13c-.11-.04-.25-.04-.41.01l-1.12.35c-.18.06-.29.13-.34.22-.05.09-.04.22,0,.39l.93,3.01-.69.21h.01Z"/>
      <path class="st0" d="M76.7,9.29l1.01,4.48c.07.33.03.64-.12.92s-.38.45-.66.52l-1.39.31c-.13.03-.27.03-.43,0s-.31-.09-.43-.17c-.22-.14-.37-.37-.44-.71l-.47-2.06c-.08-.35-.04-.64.11-.87s.42-.39.79-.47l1.64-.37-.32-1.42s.71-.16.71-.16ZM74.93,14.44c.03.12.09.22.18.29.09.07.19.1.3.07l1.24-.28c.14-.03.24-.1.31-.22s.08-.25.04-.4l-.42-1.86c-.07-.31-.26-.43-.56-.36l-1.16.26c-.31.07-.43.26-.36.58l.43,1.91h0Z"/>
      <path class="st0" d="M81.14,14.44l-.59-5.79,2.92-.3c.36-.04.69.07.98.33.12.11.2.21.25.31s.08.25.1.43l.1,1c.03.29-.05.57-.25.81-.2.25-.44.39-.73.42l-.98.1,2.38,2.25-1.11.11-2.33-2.2c-.08-.07-.12-.16-.14-.28-.02-.18.02-.33.12-.45.1-.12.25-.19.44-.21l1.26-.13c.14-.01.26-.07.36-.17s.14-.22.13-.34l-.06-.64c-.04-.36-.23-.52-.57-.48l-1.94.2.5,4.94-.83.09h0Z"/>
      <path class="st0" d="M89.67,13.9l-2.43.05c-.36,0-.65-.09-.87-.3s-.33-.48-.34-.83l-.04-1.95c-.02-.84.42-1.27,1.31-1.29l1.08-.02c.37,0,.65.08.86.27.21.19.31.47.32.82v.52l-2.81,1.39v.14l.03.18c.02.06.03.1.03.12s.02.04.04.08c.06.1.19.15.41.14l2.4-.05.02.73h-.01ZM86.72,10.88l.02.88,2.09-1.04v-.07c0-.14-.04-.23-.1-.29-.06-.05-.18-.08-.35-.07l-1.19.03c-.32,0-.48.19-.47.56Z"/>
      <path class="st0" d="M90.48,13.95l.15-4.7c.01-.36.15-.65.43-.87.1-.09.21-.15.31-.18.1-.03.26-.04.45-.03h.3l-.02.74h-.3c-.29-.02-.44.15-.45.49v.2l.73.02-.02.73-.73-.02-.12,3.64-.73-.02Z"/>
      <path class="st0" d="M92.35,14.02l.21-3.2c.03-.4.12-.68.3-.85.09-.08.22-.14.38-.18.16-.05.32-.06.47-.05l.41.03-.05.73-.35-.02c-.27-.02-.41.12-.43.41l-.2,3.19-.72-.05h-.02Z"/>
      <path class="st0" d="M94.42,14.17l.42-4.34.71.07-.42,4.34-.71-.07ZM94.79,8.87c.01-.14.07-.26.17-.35s.22-.12.36-.11.26.08.35.18c.09.11.13.23.11.37s-.07.25-.18.34-.23.12-.37.11-.25-.07-.34-.18c-.09-.11-.12-.23-.11-.37h.01Z"/>
      <path class="st0" d="M95.88,15.72l.11-.72,2.32.35c.14.02.23.03.26.03s.07-.02.14-.07c.12-.09.2-.22.22-.37l.03-.19-1.71-.26c-.32-.05-.57-.2-.75-.46s-.25-.55-.2-.88l.31-2.03c.05-.32.19-.57.41-.75.23-.18.49-.25.78-.2l1.52.23c.31.05.55.18.69.39.15.22.2.49.15.81l-.55,3.61c-.05.32-.2.57-.44.72-.25.16-.56.21-.94.15,0,0-2.35-.36-2.35-.36ZM97.02,13.19c-.02.16,0,.29.07.39s.18.17.31.19l1.26.19c.27.04.42-.11.48-.46l.28-1.87c.05-.32-.06-.51-.32-.55l-1.21-.18c-.16-.02-.29,0-.4.07s-.17.18-.19.33l-.28,1.87v.02Z"/>
      <path class="st0" d="M104.1,15.85l-2.37-.55c-.35-.08-.61-.25-.77-.5-.16-.25-.2-.55-.13-.89l.44-1.9c.19-.82.72-1.13,1.59-.92l1.05.24c.36.08.61.24.76.48s.19.53.11.87l-.12.5-3.07.65-.03.14-.02.19v.12s0,.05.02.08c.03.11.15.19.36.24l2.33.54-.16.71h0ZM101.98,12.19l-.2.86,2.28-.49.02-.07c.03-.14.02-.24-.03-.3-.05-.07-.16-.12-.32-.16l-1.16-.27c-.31-.07-.51.07-.6.43h.01Z"/>
      <path class="st0" d="M104.87,16.09l.9-3.08c.11-.38.27-.64.47-.76.11-.05.24-.09.41-.1.17,0,.32,0,.47.05l.4.12-.21.7-.34-.1c-.26-.07-.43.03-.51.31l-.89,3.07-.7-.2h0Z"/>
      <path class="st0" d="M108.21,12.51l2.43.86c.19.07.32.13.4.19.08.06.15.16.21.29s.09.27.1.41c0,.14,0,.28-.06.41l-.75,2.12c-.1.27-.28.48-.56.62-.28.14-.55.17-.81.07l-1.38-.49c-.27-.1-.48-.29-.61-.59s-.15-.59-.05-.88l.17-.49c.14-.41.35-.69.6-.85.26-.16.55-.18.89-.06l1.7.6.09-.27c.07-.19-.03-.34-.31-.43l-2.33-.82.24-.69h.03ZM107.87,16.17c.05.07.18.14.38.21l.93.33c.21.07.34.1.41.08.06-.02.13-.06.18-.12.06-.06.09-.11.11-.16l.23-.66c.05-.14.04-.26-.03-.38s-.19-.2-.36-.27l-.95-.34c-.16-.06-.31-.06-.44-.02s-.22.14-.27.27l-.23.66s-.02.11-.01.19c0,.08.03.15.06.2h-.01Z"/>
      <path class="st0" d="M111.06,18.21l2.24-5.37.67.28-.56,1.34.69.29-.28.67-.69-.29-1.4,3.36-.67-.28Z"/>
      <path class="st0" d="M112.76,18.94l1.8-3.98.65.3-1.8,3.98s-.65-.3-.65-.3ZM114.82,14.05c.06-.13.15-.22.27-.27.12-.05.25-.05.38.01s.22.16.27.29c.05.13.05.26-.01.39-.06.13-.15.22-.28.26s-.26.04-.38-.01c-.13-.06-.21-.15-.26-.28s-.04-.26.01-.38h0Z"/>
      <path class="st0" d="M115.34,20.16c-.31-.16-.51-.38-.61-.65s-.07-.56.07-.84l1.04-2c.15-.28.35-.46.62-.52.27-.07.56-.02.89.15l1.18.61c.31.16.52.37.62.64.1.26.08.53-.06.81l-1.05,2.01c-.14.27-.36.45-.65.53s-.58.04-.88-.11l-1.18-.61v-.02ZM115.56,18.8c-.09.18-.13.33-.1.45s.13.22.29.3l1.04.54c.31.16.54.08.71-.25l.85-1.63c.16-.31.09-.54-.22-.7l-1.04-.54c-.31-.16-.54-.08-.7.23l-.83,1.6Z"/>
      <path class="st0" d="M118.35,21.77l1.72-2.75c.2-.32.47-.51.79-.55.24-.03.52.05.84.25l.98.61c.31.2.51.41.59.65.05.15.06.31.04.47s-.09.32-.19.49l-1.72,2.75-.61-.38,1.67-2.67.11-.17s.02-.1,0-.18c-.04-.11-.13-.22-.28-.31l-.99-.62c-.16-.1-.29-.14-.39-.12-.1.02-.19.11-.29.26l-1.67,2.67-.62-.39h.02Z"/>
      <path class="st0" d="M126.3,27.34l-1.31-1.03c-.27-.21-.43-.47-.48-.78s.02-.59.22-.84l1.33-1.69c.14-.17.27-.29.4-.36s.28-.09.45-.07c.28.01.54.11.78.3l1.31,1.03-.45.57-1.31-1.03c-.11-.09-.23-.13-.35-.11s-.23.08-.32.19l-1.17,1.49c-.09.11-.13.24-.12.39,0,.14.07.26.18.35l1.3,1.02-.45.57h-.01Z"/>
      <path class="st0" d="M127.71,28.57c-.25-.23-.4-.49-.42-.79-.03-.29.07-.56.29-.8l1.52-1.67c.21-.23.46-.35.73-.35s.55.13.82.37l.99.89c.26.23.4.49.44.77.03.28-.06.54-.27.77l-1.52,1.68c-.21.23-.46.34-.76.35-.3,0-.57-.11-.82-.33l-.99-.89h-.01ZM128.26,27.31c-.14.15-.21.29-.21.41s.06.24.2.37l.87.79c.25.23.51.21.75-.06l1.24-1.36c.23-.26.23-.5-.03-.74l-.87-.79c-.25-.23-.5-.22-.73.04l-1.21,1.34h0Z"/>
      <path class="st0" d="M130.23,30.87l2.39-2.2c.26-.24.52-.36.78-.37.26,0,.5.11.71.34l.45.49c.08.09.15.19.21.32.06.13.1.22.1.28s0,.15-.03.28h.23c.22.03.42.15.62.37l.44.48c.45.49.4.99-.14,1.49l-2.39,2.2-.5-.54,2.36-2.17c.2-.19.21-.38,0-.59l-.39-.42c-.16-.17-.35-.16-.58.05l-2.32,2.14-.5-.54,2.32-2.14c.23-.21.24-.43.04-.64l-.39-.43c-.1-.11-.2-.17-.29-.17s-.19.05-.3.15l-2.36,2.17-.49-.53.02-.02Z"/>
      <path class="st0" d="M133.05,36.13l3.7-2.84c.29-.22.56-.31.84-.27.27.04.52.2.74.49l.84,1.09c.22.29.32.56.29.84-.02.27-.17.51-.44.72l-1.66,1.27c-.27.21-.57.3-.88.27s-.57-.17-.76-.42l-1.1-1.43-1.13.87-.44-.58h0ZM135.59,35.1c-.11.09-.18.19-.21.31-.03.12,0,.22.06.32l.84,1.09c.08.1.17.15.28.16s.22-.02.32-.1l1.64-1.26c.22-.17.25-.35.1-.55l-.79-1.03c-.21-.27-.43-.32-.67-.14l-1.56,1.2h-.01Z"/>
      <path class="st0" d="M140.58,36.53l1.41,2.16c.11.17.18.3.2.4.03.1.02.22,0,.36-.03.14-.09.27-.17.39s-.18.22-.3.29l-1.88,1.22c-.24.16-.52.21-.83.15-.31-.06-.54-.2-.69-.44l-.8-1.22c-.16-.24-.2-.52-.12-.84s.24-.56.5-.73l.44-.29c.37-.24.7-.34,1-.31s.55.2.74.49l.98,1.51.24-.15c.17-.11.18-.29.02-.53l-1.35-2.07.61-.4h0ZM138.08,39.22c0,.09.06.22.17.4l.54.82c.12.18.21.29.28.31.06.02.14.03.22.02s.14-.03.19-.06l.59-.38c.12-.08.19-.19.21-.32s-.03-.28-.13-.43l-.55-.85c-.09-.14-.21-.24-.34-.28-.13-.04-.26-.03-.38.05l-.59.38s-.08.07-.13.14c-.04.07-.07.13-.08.2h0Z"/>
      <path class="st0" d="M139.38,42.75l2.85-1.55c.34-.18.66-.21.96-.09.23.09.43.3.61.62l.55,1.01c.18.33.24.61.2.86-.03.16-.1.3-.19.43-.1.13-.23.24-.4.33l-2.85,1.55-.34-.63,2.76-1.51.18-.1s.07-.08.1-.16c.02-.12,0-.25-.09-.4l-.56-1.03c-.09-.17-.18-.26-.28-.29s-.22,0-.38.08l-2.76,1.51-.35-.64h-.01Z"/>
      <path class="st0" d="M140.22,47.32l.66-.3.99,2.21c.12.27.32.34.6.22l.21-.1-.74-1.66c-.12-.28-.13-.55-.03-.81.1-.26.3-.46.57-.58l3.01-1.35.3.66-2.83,1.27c-.33.15-.42.38-.29.68l.46,1.04c.13.3.34.39.62.26l2.9-1.3.3.66-4.16,1.86c-.35.16-.67.19-.95.1s-.49-.3-.63-.63l-1.01-2.25.02.02Z"/>
    </g>
    <g>
      <g>
        <path class="st0" d="M58.5,77.96s-3.94,0-2.24-4.47,1.88-5.1,2.42-5.64,1.93-1.78,5.24-2.92l3.26-.85s5.34-1.95,3.01-7.75c0,0-2.15-3.58-4.18-6.42,0,0-6.44-11.66,1.74-25.17,0,0,1.33,7.25,9.34,14.38,0,0,7.77,6.73,7.48,11.31,0,0,.12,5.28-7.19,10.5,0,0-5.39,3.54-10.84,4,0,0-7.13,2.09-7.77,4.18,0,0-2.03,3.94.17,2.84,0,0,0,1.18,1.53,1.06,0,0,1.05-.99,1.45-.43l.09,1.14s2.84-1.42,4.83-.99c0,0,2.56.54,2.84.68,0,0,.06.37-.91.37,0,0,4.6,1.53,6.42,2.47,0,0-.8-1.28-3.12-2.16,0,0,3.24,0,5.03.6l-5.54-4.06s.77-.74,2.95.28c0,0,2.84,1.53,4.17.74,0,0-3.89-3.61-8.18-4.06,0,0,5.45-.8,5.57-2.7,0,0-2.56,1.11-5.37.4,0,0,11.24-2.25,15.02-14.61,0,0,.38-7.69,10.97-14l21.83-10.52s4.26-1.96,4.74-2.71c0,0,2.1,6.02-4.6,9.41,0,0-9.34,3.93-10.42,5.96,0,0,7.51-4.13,13.61-4.94l-1.02,7.65s-.14,4.67-6.02,5.14c0,0-8.33,1.35-9.81,3.66l14.35-3.05s-2.1,5.55-2.44,6.09c-.29.46-2.12,2.32-4.6,3.31-.72.29-1.49.4-2.26.43-1.82.05-5.7.3-7.28,1.48,0,0,10.29-.47,10.69-.68l-4.54,5.01s-1.15,2.17-5.41,2.1c0,0-7.46-.33-8.84,1.24,0,0,7.38-.91,9.93.03,0,0-1.76,2.36-7.85,3.33,0,0-6.25,1.01-6.12,4.02s4.02,4.11,6.03,4.08,4.65-.35,5.5-.91.79.44.38.47-3.77,2.1-4.27,2.14c0,0,2.07,2.23,7.85-.31,0,0,4.02-2.17,4.43-2.98,0,0-.63,2.42-.97,3.05,0,0,5.75-2.29,7.19-3.14,0,0-.63,3.3-4.87,6.22,0,0,3.05-.66,3.83-1.16,0,0-.88,2.36-4.99,4.55,0,0,1.54.34,2.36-.15,0,0-.37,4.48-10.69,4.11,0,0,3,1.44,6.21.74,0,0-4.89,4.03-14.14,2.26l.29.95-5.75-2.71s-.25.16.16.78c0,0-.12,1.48-1.89-1.36,0,0-.62-2.59-2.75-2.79,0,0,.08,4.56-.82,5.43,0,0-.53-.25-.49-2.22,0,0-2.34,4.56-2.75,5.01,0,0-.04-.95.08-1.77,0,0-3.7,1.44-6.33.25,0,0-1.97-.21-2.55,1.15,0,0,1.77,2.59.37,4.03,0,0-1.23-.62-2.26-4.11,0,0-2.1,1.6-3.16.33,0,0-.62-.62-1.56-.08,0,0,.74-1.27,2.05-1.32,0,0-1.15-.78-1.81-1.85,0,0-1.27-.7-1.89,0,0,0,1.4-2.05,3.53-.49,0,0,1.73,1.81,4.81.7,0,0,4.15-2.18,4.4-6.25,0,0,.37.66.33,2.26,0,0,1.03-2.47,1.03-4.4,0,0,.66.99.78,2.55,0,0,1.07-3.08-.12-4.77,0,0-1.97,3.49-5.14,4.4,0,0-3.74.53-2.84,1.97,0,0,1.93,2.01,1.03,3.66l-2.88-3.04-3.74.99,1.19-2.05-3.29-1.11s.58-1.6,2.84-.53c0,0,6.04.86,6.04-5.26l1.23,1.6-.7-1.69,1.32.58-1.27-1.93,1.77.74s-2.75-5.92-8.59-6.16c0,0-6.52-.29-6.59,3.92l-.06-.06Z"/>
        <path class="st0" d="M59.29,71.54s1.55-1.8,1.58-2.2c0,0,.4,1.4-.34,2.11,0,0-1.46.99-1.24.09Z"/>
      </g>
      <g>
        <path class="st2" d="M65.44,117.82h-8.69c-.63,0-1.15-.2-1.57-.61s-.63-.92-.63-1.53c0-.42.15-.85.44-1.27l7.84-11.06h-8.07v-2.47h8.9c.59,0,1.08.18,1.44.55.37.37.55.85.55,1.44,0,.47-.15.92-.45,1.34l-7.89,11.13h8.13v2.47h0Z"/>
        <path class="st0" d="M66.15,117.82l5.61-15.34c.25-.67.51-1.14.79-1.4s.65-.39,1.14-.39c.53,0,.94.13,1.22.38s.56.72.82,1.41l5.59,15.34h-2.65l-1.26-3.52h-7.35l-1.29,3.52h-2.63,0ZM73.68,104.13l-2.72,7.7h5.52s-2.8-7.7-2.8-7.7Z"/>
        <path class="st0" d="M82.61,117.82v-16.93h8.55c1.06,0,1.98.41,2.75,1.24.31.34.52.67.63.98.11.31.16.74.16,1.29v2.93c0,.86-.33,1.62-.97,2.28-.65.66-1.4,1-2.24,1h-2.87l6.22,7.21h-3.26l-6.1-7.07c-.21-.22-.31-.5-.31-.85,0-.54.16-.96.49-1.28.33-.31.77-.47,1.33-.47h3.7c.42,0,.79-.13,1.1-.4s.47-.58.47-.96v-1.87c0-1.04-.51-1.57-1.52-1.57h-5.69v14.47h-2.44Z"/>
        <path class="st0" d="M108.24,117.82h-7.26c-1.03,0-1.91-.4-2.63-1.2s-1.08-1.75-1.08-2.87v-8.69c0-1.25.35-2.26,1.06-3.03.7-.77,1.64-1.15,2.82-1.15h7.14v2.47h-6.81c-1.17,0-1.76.59-1.76,1.76v8.43c0,.52.16.95.49,1.29.33.34.75.52,1.27.52h6.76s0,2.47,0,2.47Z"/>
        <path class="st0" d="M115.92,117.82c-1.19,0-2.04-.08-2.56-.23-.52-.16-1.01-.49-1.48-1.01-.74-.78-1.1-1.95-1.1-3.5v-7.45c0-.85.08-1.52.25-2.03s.46-1.01.89-1.49c.43-.48.92-.81,1.46-.97.54-.17,1.39-.25,2.55-.25h1.83c1.21,0,2.06.08,2.55.23.49.16.99.49,1.49,1.01.75.8,1.13,1.96,1.13,3.5v7.45c0,.85-.08,1.52-.23,2.03s-.46,1.01-.9,1.49c-.45.48-.94.81-1.48.97s-1.39.25-2.55.25h-1.85ZM113.22,113.19c0,.84.16,1.42.47,1.71.31.3.93.45,1.86.45h2.61c.91,0,1.52-.14,1.84-.43s.48-.86.48-1.7v-7.7c0-.81-.16-1.38-.49-1.69-.33-.31-.94-.47-1.83-.47h-2.61c-.89,0-1.5.15-1.83.45-.33.3-.49.87-.49,1.71v7.68h-.01Z"/>
      </g>
    </g>
  </g>
  <g>
    <g>
      <path class="st1" d="M223.82,82.49h-27.96l-4.63,13.38h-14.79l25.25-70.3h16.39l25.24,70.3h-14.89l-4.63-13.38h.02ZM209.84,41.86l-10.16,29.37h20.32l-10.16-29.37Z"/>
      <path class="st1" d="M252.78,21.44h14.08v74.43h-14.08V21.44h0Z"/>
      <path class="st2" d="M350.64,36.53l-31.58,47.47h31.58v11.87h-47.88v-10.86l31.38-47.47h-31.38v-11.87h47.88s0,10.86,0,10.86Z"/>
      <path class="st1" d="M384.43,39.24c8.95,0,15.09,4.22,18.41,8.85v-7.95h14.18v55.72h-14.18v-8.15c-3.32,4.83-9.66,9.05-18.51,9.05-14.08,0-25.35-11.57-25.35-28.97s11.27-28.56,25.45-28.56h0ZM388.05,51.61c-7.54,0-14.68,5.63-14.68,16.19s7.14,16.6,14.68,16.6,14.78-5.83,14.78-16.39-7.04-16.39-14.78-16.39h0Z"/>
      <path class="st1" d="M430.79,21.44h14.08v25.65c3.62-4.73,9.86-7.74,17.3-7.74,12.57,0,21.73,8.45,21.73,23.84v32.69h-14.08v-30.78c0-8.95-4.93-13.78-12.37-13.78s-12.57,4.83-12.57,13.78v30.78h-14.08V21.44h-.01Z"/>
      <path class="st1" d="M511.35,95.87h-14.08v-55.72h14.08v8.65c3.52-5.73,9.35-9.45,17.1-9.45v14.78h-3.72c-8.35,0-13.38,3.22-13.38,13.98v27.76h0Z"/>
      <path class="st1" d="M559.73,39.24c8.95,0,15.09,4.22,18.41,8.85v-7.95h14.18v55.72h-14.18v-8.15c-3.32,4.83-9.66,9.05-18.51,9.05-14.08,0-25.35-11.57-25.35-28.97s11.27-28.56,25.45-28.56h0ZM563.35,51.61c-7.54,0-14.68,5.63-14.68,16.19s7.14,16.6,14.68,16.6,14.78-5.83,14.78-16.39-7.04-16.39-14.78-16.39h0Z"/>
    </g>
    <g>
      <path d="M184.25,120.03h-5.36l-.89,2.56h-2.83l4.84-13.47h3.14l4.84,13.47h-2.85l-.89-2.56h0ZM181.58,112.24l-1.95,5.63h3.89l-1.95-5.63h0Z"/>
      <path d="M189.8,109.14h2.7v13.45h-2.7v-13.45Z"/>
      <path d="M200.21,109.14c3.24,0,4.85,1.87,4.85,4.12,0,1.64-.91,3.29-3.06,3.87l3.22,5.45h-3.12l-2.97-5.24h-1.27v5.24h-2.7v-13.45h5.05,0ZM200.11,111.38h-2.25v3.95h2.25c1.5,0,2.18-.79,2.18-2s-.67-1.95-2.18-1.95Z"/>
      <path d="M218.26,108.97c2.99,0,5.41,1.6,6.32,4.35h-3.1c-.64-1.29-1.79-1.93-3.24-1.93-2.35,0-4.03,1.71-4.03,4.45s1.68,4.45,4.03,4.45c1.44,0,2.6-.64,3.24-1.95h3.1c-.91,2.77-3.33,4.35-6.32,4.35-3.87,0-6.82-2.83-6.82-6.86s2.95-6.88,6.82-6.88v.02Z"/>
      <path d="M233.14,122.72c-3.8,0-6.9-2.85-6.9-6.9s3.1-6.88,6.9-6.88,6.88,2.85,6.88,6.88-3.06,6.9-6.88,6.9ZM233.14,120.32c2.43,0,4.1-1.75,4.1-4.49s-1.68-4.45-4.1-4.45-4.12,1.71-4.12,4.45,1.68,4.49,4.12,4.49Z"/>
      <path d="M253.52,109.12v13.47h-2.7l-6.11-9.23v9.23h-2.7v-13.47h2.7l6.11,9.25v-9.25s2.7,0,2.7,0Z"/>
      <path d="M267.97,115.88c0,4.06-2.79,6.7-7.09,6.7h-4.7v-13.45h4.7c4.3,0,7.09,2.66,7.09,6.74h0ZM260.79,120.3c2.83,0,4.43-1.62,4.43-4.41s-1.6-4.47-4.43-4.47h-1.91v8.88s1.91,0,1.91,0Z"/>
      <path d="M270,109.14h2.7v13.45h-2.7v-13.45Z"/>
      <path d="M274.64,109.14h9.86v2.18h-3.58v11.27h-2.7v-11.27h-3.58s0-2.18,0-2.18Z"/>
      <path d="M286.47,109.14h2.7v13.45h-2.7v-13.45Z"/>
      <path d="M298.07,122.72c-3.8,0-6.9-2.85-6.9-6.9s3.1-6.88,6.9-6.88,6.88,2.85,6.88,6.88-3.06,6.9-6.88,6.9ZM298.07,120.32c2.43,0,4.1-1.75,4.1-4.49s-1.68-4.45-4.1-4.45-4.12,1.71-4.12,4.45,1.68,4.49,4.12,4.49Z"/>
      <path d="M318.45,109.12v13.47h-2.7l-6.11-9.23v9.23h-2.7v-13.47h2.7l6.11,9.25v-9.25s2.7,0,2.7,0Z"/>
      <path d="M321.12,109.14h2.7v13.45h-2.7v-13.45Z"/>
      <path d="M337.97,109.12v13.47h-2.7l-6.11-9.23v9.23h-2.7v-13.47h2.7l6.11,9.25v-9.25s2.7,0,2.7,0Z"/>
      <path d="M353.1,113.19h-3.1c-.62-1.14-1.73-1.73-3.16-1.73-2.41,0-4.08,1.71-4.08,4.39s1.7,4.43,4.2,4.43c2.08,0,3.41-1.19,3.81-3.1h-4.62v-2.06h7.28v2.35c-.54,2.74-2.99,5.24-6.57,5.24-3.91,0-6.88-2.83-6.88-6.86s2.97-6.88,6.86-6.88c3.01,0,5.39,1.52,6.26,4.22Z"/>
      <path d="M368.26,120.03h-5.36l-.89,2.56h-2.83l4.84-13.47h3.14l4.84,13.47h-2.85l-.89-2.56ZM365.59,112.24l-1.95,5.63h3.89l-1.95-5.63h.01Z"/>
      <path d="M385.32,109.12v13.47h-2.7l-6.11-9.23v9.23h-2.7v-13.47h2.7l6.11,9.25v-9.25s2.7,0,2.7,0Z"/>
      <path d="M399.77,115.88c0,4.06-2.79,6.7-7.09,6.7h-4.7v-13.45h4.7c4.3,0,7.09,2.66,7.09,6.74h0ZM392.58,120.3c2.83,0,4.43-1.62,4.43-4.41s-1.6-4.47-4.43-4.47h-1.91v8.88s1.91,0,1.91,0Z"/>
      <path d="M411.42,109.14c3.24,0,4.85,1.87,4.85,4.12,0,1.64-.91,3.29-3.06,3.87l3.22,5.45h-3.12l-2.97-5.24h-1.27v5.24h-2.7v-13.45h5.05ZM411.33,111.38h-2.25v3.95h2.25c1.5,0,2.18-.79,2.18-2s-.67-1.95-2.18-1.95Z"/>
      <path d="M426.53,111.32h-5.11v3.37h4.53v2.14h-4.53v3.56h5.11v2.2h-7.8v-13.47h7.8v2.2Z"/>
      <path d="M428.98,109.14h8.3v2.18h-5.61v3.45h4.3v2.14h-4.3v5.68h-2.7v-13.45h.01Z"/>
      <path d="M444.24,109.14c3.24,0,4.85,1.87,4.85,4.12,0,1.64-.91,3.29-3.06,3.87l3.22,5.45h-3.12l-2.97-5.24h-1.27v5.24h-2.7v-13.45h5.05ZM444.14,111.38h-2.25v3.95h2.25c1.5,0,2.18-.79,2.18-2s-.67-1.95-2.18-1.95Z"/>
      <path d="M451.54,109.14h2.7v13.45h-2.7v-13.45Z"/>
      <path d="M469.36,113.19h-3.1c-.62-1.14-1.73-1.73-3.16-1.73-2.41,0-4.08,1.71-4.08,4.39s1.7,4.43,4.2,4.43c2.08,0,3.41-1.19,3.81-3.1h-4.62v-2.06h7.28v2.35c-.54,2.74-2.99,5.24-6.57,5.24-3.91,0-6.88-2.83-6.88-6.86s2.97-6.88,6.86-6.88c3.01,0,5.39,1.52,6.26,4.22Z"/>
      <path d="M479.5,111.32h-5.1v3.37h4.53v2.14h-4.53v3.56h5.1v2.2h-7.8v-13.47h7.8v2.2Z"/>
      <path d="M486.99,109.14c3.24,0,4.85,1.87,4.85,4.12,0,1.64-.91,3.29-3.06,3.87l3.22,5.45h-3.12l-2.97-5.24h-1.27v5.24h-2.7v-13.45h5.05ZM486.9,111.38h-2.25v3.95h2.25c1.5,0,2.18-.79,2.18-2s-.67-1.95-2.18-1.95Z"/>
      <path d="M502.54,120.03h-5.36l-.89,2.56h-2.83l4.84-13.47h3.14l4.84,13.47h-2.85l-.89-2.56ZM499.86,112.24l-1.95,5.63h3.89l-1.95-5.63h.01Z"/>
      <path d="M507.38,109.14h9.86v2.18h-3.58v11.27h-2.7v-11.27h-3.58v-2.18h0Z"/>
      <path d="M519.21,109.14h2.7v13.45h-2.7v-13.45Z"/>
      <path d="M530.81,122.72c-3.8,0-6.9-2.85-6.9-6.9s3.1-6.88,6.9-6.88,6.88,2.85,6.88,6.88-3.06,6.9-6.88,6.9ZM530.81,120.32c2.43,0,4.1-1.75,4.1-4.49s-1.68-4.45-4.1-4.45-4.12,1.71-4.12,4.45,1.68,4.49,4.12,4.49Z"/>
      <path d="M551.19,109.12v13.47h-2.7l-6.11-9.23v9.23h-2.7v-13.47h2.7l6.11,9.25v-9.25s2.7,0,2.7,0Z"/>
      <path d="M564.6,108.97c2.99,0,5.41,1.6,6.32,4.35h-3.1c-.64-1.29-1.79-1.93-3.24-1.93-2.35,0-4.03,1.71-4.03,4.45s1.68,4.45,4.03,4.45c1.44,0,2.6-.64,3.24-1.95h3.1c-.91,2.77-3.33,4.35-6.32,4.35-3.87,0-6.82-2.83-6.82-6.86s2.95-6.88,6.82-6.88v.02Z"/>
      <path d="M579.48,122.72c-3.8,0-6.9-2.85-6.9-6.9s3.1-6.88,6.9-6.88,6.88,2.85,6.88,6.88-3.06,6.9-6.88,6.9ZM579.48,120.32c2.43,0,4.1-1.75,4.1-4.49s-1.68-4.45-4.1-4.45-4.12,1.71-4.12,4.45,1.68,4.49,4.12,4.49Z"/>
      <path d="M589.56,122.72c-.98,0-1.68-.69-1.68-1.58s.69-1.58,1.68-1.58,1.64.69,1.64,1.58-.69,1.58-1.64,1.58Z"/>
    </g>
  </g>
</svg>