<?xml version="1.0" encoding="UTF-8"?>
<svg id="Layer_1" data-name="Layer 1" xmlns="http://www.w3.org/2000/svg" viewBox="0 0 2643.05 861.67">
  <defs>
    <style>
      .cls-1 {
        fill: #0a57a4;
      }

      .cls-2 {
        fill: #fff;
      }

      .cls-3 {
        fill: #dbad79;
      }
    </style>
  </defs>
  <g>
    <path class="cls-2" d="M351.17,689.56c-156.71,0-284.2-127.49-284.2-284.2S194.46,121.15,351.17,121.15s284.2,127.49,284.2,284.2-127.49,284.2-284.2,284.2ZM351.17,123.12c-155.62,0-282.23,126.61-282.23,282.23s126.61,282.23,282.23,282.23,282.23-126.61,282.23-282.23S506.8,123.12,351.17,123.12Z"/>
    <g>
      <circle class="cls-2" cx="351.17" cy="405.35" r="276.72"/>
      <g>
        <path class="cls-1" d="M126.03,317l-16.71-16.21c-.73-.72-1.19-1.33-1.36-1.83-.18-.51-.13-1.08.16-1.71.31-.69.71-1.15,1.2-1.37.49-.22,1.26-.3,2.31-.25l23.22,1.62-1.53,3.45-5.33-.41-4.26,9.57,3.84,3.72-1.52,3.42ZM112.58,299.24l8.44,8,3.2-7.19-11.65-.81Z"/>
        <path class="cls-1" d="M115.83,286.51c-.54-.28-.9-.67-1.08-1.2-.18-.52-.14-1.04.13-1.55.28-.54.69-.89,1.25-1.07.56-.18,1.09-.13,1.61.13.52.27.86.67,1.03,1.21.17.54.13,1.07-.14,1.58s-.67.86-1.21,1.03-1.07.13-1.59-.14ZM135.69,296.08l-16.1-8.31,1.37-2.65,16.1,8.31-1.37,2.65Z"/>
        <path class="cls-1" d="M139.01,289.76l-11.64-6.49c-1.44-.81-2.32-1.68-2.64-2.62-.12-.47-.12-1.06,0-1.75.12-.69.33-1.31.63-1.85l.83-1.49,2.66,1.48-.72,1.29c-.54.98-.29,1.76.76,2.34l11.58,6.46-1.47,2.63Z"/>
        <path class="cls-1" d="M133.19,277.3l4.46-7.36,3,1.83-4.46,7.36-3-1.83Z"/>
        <path class="cls-1" d="M155.59,263.43l-3.93,5.72c-.81,1.18-1.84,1.92-3.11,2.21-1.26.3-2.43.07-3.52-.67l-7.37-5.06c-.76-.52-1.29-1.03-1.6-1.55s-.45-1.13-.41-1.87c-.02-1.15.33-2.25,1.05-3.3l3.91-5.68,2.48,1.7-3.91,5.69c-.34.5-.47.99-.37,1.49.09.5.39.92.88,1.26l6.49,4.46c.5.34,1.04.47,1.64.39s1.06-.35,1.39-.84l3.89-5.66,2.48,1.71Z"/>
        <path class="cls-1" d="M160.32,257.25c-.89,1.12-1.93,1.77-3.14,1.95s-2.33-.14-3.38-.98l-7.34-5.84c-1.03-.82-1.58-1.8-1.65-2.93s.37-2.3,1.32-3.49l3.44-4.32c.9-1.13,1.93-1.81,3.08-2.02,1.15-.21,2.24.08,3.25.89l7.36,5.86c.99.79,1.54,1.81,1.63,3.06.09,1.24-.29,2.41-1.15,3.49l-3.44,4.32ZM154.95,255.29c.66.53,1.25.78,1.75.75.51-.02.99-.34,1.47-.93l3.02-3.8c.89-1.12.74-2.15-.45-3.09l-5.97-4.75c-1.14-.91-2.15-.8-3.04.32l-3.02,3.8c-.89,1.12-.77,2.13.37,3.03l5.87,4.67Z"/>
        <path class="cls-1" d="M169.31,246.2l-9.85-9.18c-1.16-1.08-1.7-2.3-1.62-3.66.06-1.01.61-2.08,1.66-3.21l3.26-3.5c1.05-1.13,2.09-1.77,3.11-1.91.66-.08,1.31-.02,1.94.2.63.22,1.24.61,1.83,1.16l9.85,9.18-2.03,2.18-9.56-8.9-.61-.57c-.16-.12-.41-.18-.74-.19-.49.07-.98.36-1.47.89l-3.31,3.55c-.54.58-.8,1.07-.78,1.48.01.41.29.87.83,1.37l9.56,8.9-2.05,2.2Z"/>
        <path class="cls-1" d="M176.83,204.72l12.9,14.02c.95,1.04,1.44,2.22,1.46,3.55s-.42,2.41-1.32,3.24l-4.36,4.01c-.39.36-.91.66-1.55.88-.64.23-1.28.33-1.91.3-1.07-.04-2.09-.59-3.06-1.64l-5.94-6.46c-1-1.08-1.46-2.2-1.38-3.35.08-1.15.7-2.26,1.87-3.34l5.15-4.74-4.08-4.44,2.22-2.04ZM181.09,226.91c.35.38.77.6,1.25.67.49.07.89-.05,1.22-.35l3.89-3.58c.45-.41.66-.88.65-1.42,0-.54-.23-1.04-.67-1.52l-5.37-5.84c-.89-.97-1.81-1.02-2.77-.14l-3.65,3.35c-.97.89-.99,1.84-.07,2.84l5.51,5.99Z"/>
        <path class="cls-1" d="M181.8,203.37c-.38-.47-.56-.97-.52-1.52.04-.56.28-1.01.73-1.38.46-.39.99-.55,1.57-.49.58.06,1.06.31,1.43.76s.53.96.47,1.52c-.05.57-.3,1.03-.75,1.4-.45.37-.95.53-1.52.47-.57-.05-1.03-.3-1.4-.75ZM196.29,219.98l-11.54-13.97,2.3-1.9,11.54,13.97-2.3,1.9Z"/>
        <path class="cls-1" d="M201.8,215.5l-14.8-19.08,2.38-1.85,3.69,4.76,2.43-1.89,1.85,2.38-2.44,1.89,9.26,11.93-2.38,1.85Z"/>
        <path class="cls-1" d="M194.46,193.39c-.35-.49-.5-1-.43-1.55.07-.55.34-.99.81-1.33.49-.35,1.02-.49,1.6-.4.58.09,1.04.37,1.38.84.34.47.47.99.38,1.55-.09.56-.37,1.01-.84,1.36-.47.34-.98.47-1.55.38-.56-.09-1.01-.37-1.35-.84ZM207.91,210.85l-10.66-14.65,2.41-1.75,10.66,14.65-2.41,1.75Z"/>
        <path class="cls-1" d="M217.59,204.05c-1.2.77-2.4,1.06-3.6.86-1.2-.21-2.16-.87-2.89-2l-5.1-7.87c-.71-1.11-.93-2.21-.63-3.31s1.08-2.06,2.36-2.89l4.64-3.01c1.22-.79,2.41-1.1,3.56-.94,1.16.17,2.09.79,2.8,1.88l5.12,7.89c.69,1.07.88,2.21.58,3.42s-1.04,2.19-2.2,2.94l-4.64,3.01ZM213.12,200.48c.46.71.94,1.14,1.42,1.27s1.05,0,1.69-.42l4.07-2.64c1.2-.78,1.39-1.8.56-3.08l-4.15-6.41c-.79-1.21-1.78-1.43-2.98-.66l-4.07,2.64c-1.2.78-1.4,1.77-.61,2.99l4.08,6.29Z"/>
        <path class="cls-1" d="M229.63,196.43l-6.42-11.83c-.76-1.4-.88-2.72-.37-3.99.38-.94,1.24-1.78,2.6-2.51l4.21-2.29c1.35-.73,2.54-1.01,3.56-.82.65.13,1.24.4,1.77.81.53.41.98.97,1.37,1.68l6.42,11.84-2.62,1.42-6.22-11.48-.4-.74c-.11-.17-.33-.3-.64-.41-.49-.09-1.04.03-1.68.37l-4.27,2.32c-.69.38-1.1.76-1.22,1.16s0,.91.35,1.56l6.22,11.48-2.65,1.44Z"/>
        <path class="cls-1" d="M248.15,166.81l9.96-3.96c.77-.31,1.36-.47,1.79-.5.42-.02.9.08,1.45.33.54.24,1.02.57,1.44.99.42.42.74.9.95,1.44l3.44,8.65c.45,1.12.43,2.28-.05,3.48-.48,1.2-1.26,2.02-2.34,2.45l-5.63,2.24c-1.12.44-2.3.39-3.53-.18-1.23-.57-2.09-1.44-2.56-2.62l-.81-2.02c-.67-1.68-.82-3.12-.44-4.31.38-1.19,1.25-2.07,2.62-2.61l6.94-2.76-.43-1.09c-.31-.79-1.03-.96-2.15-.51l-9.52,3.79-1.12-2.8ZM257.08,179.19c.37.07.95-.05,1.76-.38l3.79-1.51c.85-.34,1.35-.63,1.49-.88.14-.25.22-.54.25-.87.02-.33,0-.61-.09-.81l-1.08-2.71c-.22-.56-.6-.93-1.14-1.09-.54-.17-1.16-.12-1.86.17l-3.89,1.55c-.66.26-1.14.64-1.42,1.14-.28.5-.31,1.03-.09,1.58l1.08,2.71c.07.19.23.39.46.62s.48.39.73.48Z"/>
        <path class="cls-1" d="M272.39,176.82l-3.99-12.86c-.47-1.51-.33-2.84.41-3.98.56-.85,1.57-1.5,3.04-1.96l4.57-1.42c1.47-.45,2.69-.49,3.65-.12.62.25,1.14.64,1.58,1.14.44.51.77,1.14,1.01,1.91l3.99,12.86-2.85.88-3.87-12.47-.25-.8c-.08-.19-.27-.36-.55-.53-.46-.19-1.03-.17-1.72.04l-4.64,1.44c-.75.24-1.22.53-1.42.9-.19.36-.18.9.04,1.6l3.87,12.48-2.88.89Z"/>
        <path class="cls-1" d="M299.66,144.55l4.2,18.58c.31,1.37.14,2.64-.5,3.8-.64,1.16-1.56,1.88-2.76,2.15l-5.78,1.31c-.52.12-1.12.12-1.79,0s-1.27-.35-1.8-.69c-.91-.57-1.52-1.55-1.83-2.95l-1.93-8.56c-.33-1.44-.17-2.64.48-3.59.64-.96,1.73-1.61,3.28-1.96l6.83-1.54-1.33-5.88,2.94-.66ZM292.3,165.92c.11.5.36.9.75,1.21.39.3.8.4,1.24.3l5.16-1.16c.59-.13,1.01-.44,1.27-.91s.32-1.02.18-1.65l-1.75-7.74c-.29-1.29-1.07-1.78-2.33-1.5l-4.84,1.09c-1.29.29-1.78,1.1-1.48,2.43l1.79,7.94Z"/>
        <path class="cls-1" d="M318.12,165.9l-2.45-24.02,12.13-1.24c1.51-.15,2.87.3,4.08,1.36.49.44.84.87,1.04,1.3s.34,1.03.42,1.8l.42,4.15c.12,1.22-.23,2.35-1.05,3.38-.83,1.04-1.84,1.61-3.04,1.74l-4.06.41,9.87,9.33-4.63.47-9.68-9.15c-.33-.28-.51-.67-.56-1.16-.08-.76.09-1.39.51-1.88.42-.49,1.03-.78,1.82-.86l5.25-.54c.6-.06,1.1-.3,1.5-.72.4-.42.58-.9.52-1.43l-.27-2.65c-.15-1.48-.95-2.15-2.38-2l-8.07.82,2.09,20.52-3.46.35Z"/>
        <path class="cls-1" d="M353.52,163.69l-10.08.22c-1.5.03-2.7-.37-3.61-1.23-.91-.85-1.39-2-1.42-3.45l-.18-8.11c-.08-3.48,1.74-5.26,5.44-5.35l4.49-.1c1.52-.03,2.7.35,3.56,1.14.86.8,1.3,1.93,1.33,3.4l.05,2.14-11.7,5.75v.6s.13.77.13.77c.07.25.12.41.13.49.01.08.06.18.16.31.23.42.8.62,1.69.6l9.94-.22.07,3.01ZM341.25,151.14l.09,3.66,8.67-4.3v-.3c-.02-.58-.16-.98-.42-1.19-.26-.22-.75-.32-1.46-.3l-4.92.11c-1.34.03-1.99.81-1.96,2.33Z"/>
        <path class="cls-1" d="M356.87,163.86l.62-19.51c.05-1.5.64-2.69,1.78-3.6.43-.37.87-.61,1.31-.73.44-.12,1.07-.17,1.89-.14l1.23.04-.1,3.04-1.23-.04c-1.21-.04-1.84.66-1.89,2.09l-.03.84,3.05.1-.1,3.01-3.04-.1-.48,15.09-3.01-.09Z"/>
        <path class="cls-1" d="M364.66,164.16l.85-13.3c.11-1.65.52-2.82,1.23-3.51.38-.31.9-.56,1.58-.76.67-.19,1.32-.27,1.94-.23l1.71.11-.2,3.04-1.47-.09c-1.11-.07-1.71.49-1.79,1.7l-.85,13.24-3.01-.19Z"/>
        <path class="cls-1" d="M373.23,164.79l1.74-18.03,2.97.29-1.74,18.03-2.97-.29ZM374.75,142.8c.06-.6.3-1.08.71-1.45.42-.36.91-.52,1.49-.46.6.06,1.08.31,1.46.76.37.45.53.96.47,1.54s-.3,1.05-.74,1.41c-.44.36-.95.52-1.52.46-.58-.05-1.05-.3-1.41-.74-.36-.44-.51-.95-.46-1.53Z"/>
        <path class="cls-1" d="M379.29,171.23l.45-2.98,9.64,1.46c.6.09.95.13,1.06.13.11,0,.31-.1.59-.29.51-.37.81-.89.91-1.55l.12-.8-7.12-1.08c-1.33-.2-2.36-.84-3.12-1.91-.75-1.08-1.02-2.3-.82-3.67l1.28-8.44c.2-1.33.77-2.36,1.71-3.11.94-.75,2.01-1.03,3.23-.85l6.32.96c1.3.2,2.26.74,2.88,1.64.62.89.83,2.02.63,3.36l-2.26,14.97c-.2,1.35-.82,2.35-1.84,3.01-1.03.66-2.32.87-3.89.63l-9.77-1.48ZM384.02,160.74c-.1.64,0,1.19.29,1.64s.73.72,1.3.81l5.23.79c1.1.17,1.76-.47,1.98-1.9l1.18-7.78c.2-1.35-.24-2.1-1.32-2.27l-5.03-.76c-.66-.1-1.21,0-1.66.31s-.71.77-.8,1.39l-1.18,7.78Z"/>
        <path class="cls-1" d="M413.42,171.77l-9.82-2.27c-1.46-.34-2.52-1.03-3.2-2.08-.67-1.05-.85-2.28-.52-3.69l1.83-7.9c.78-3.39,2.98-4.67,6.59-3.83l4.37,1.01c1.48.34,2.53,1.01,3.17,1.99.63.98.78,2.19.45,3.63l-.48,2.09-12.76,2.69-.13.59-.08.77c0,.25.01.42,0,.5,0,.08.02.19.08.34.12.47.62.8,1.49,1l9.69,2.24-.68,2.94ZM404.63,156.58l-.82,3.57,9.46-2.03.07-.29c.13-.57.09-.99-.1-1.26-.2-.28-.65-.49-1.34-.66l-4.8-1.11c-1.3-.3-2.13.29-2.47,1.77Z"/>
        <path class="cls-1" d="M416.59,172.75l3.72-12.8c.46-1.59,1.12-2.64,1.96-3.16.44-.22,1-.35,1.7-.4.7-.04,1.35.03,1.95.2l1.64.48-.85,2.93-1.41-.41c-1.07-.31-1.78.11-2.11,1.27l-3.7,12.73-2.89-.84Z"/>
        <path class="cls-1" d="M430.47,157.9l10.11,3.57c.78.27,1.34.54,1.67.8.34.26.63.66.87,1.19.25.54.39,1.11.43,1.7.04.59-.04,1.16-.23,1.71l-3.1,8.78c-.4,1.14-1.18,2-2.33,2.59-1.15.59-2.28.69-3.37.3l-5.72-2.02c-1.14-.4-1.98-1.22-2.54-2.46-.56-1.24-.62-2.46-.2-3.66l.72-2.05c.6-1.7,1.44-2.88,2.51-3.53,1.07-.66,2.3-.74,3.69-.24l7.04,2.48.39-1.11c.28-.8-.14-1.4-1.28-1.8l-9.66-3.41,1-2.84ZM429.05,173.1c.23.29.75.58,1.57.87l3.85,1.36c.86.3,1.43.41,1.7.32.27-.1.52-.26.76-.5.24-.24.39-.46.47-.67l.97-2.75c.2-.57.15-1.09-.14-1.58-.29-.48-.8-.85-1.51-1.1l-3.95-1.39c-.67-.24-1.28-.26-1.82-.07s-.91.57-1.11,1.13l-.97,2.75c-.07.19-.09.45-.06.78.03.33.1.61.24.85Z"/>
        <path class="cls-1" d="M442.31,181.58l9.28-22.29,2.78,1.16-2.32,5.57,2.84,1.18-1.16,2.78-2.84-1.18-5.81,13.94-2.78-1.16Z"/>
        <path class="cls-1" d="M449.38,184.6l7.48-16.5,2.71,1.23-7.48,16.5-2.72-1.23ZM457.92,164.28c.25-.55.63-.93,1.14-1.14.51-.21,1.03-.2,1.56.04.55.25.93.65,1.13,1.19.2.55.19,1.08-.05,1.61-.24.53-.62.89-1.16,1.09s-1.06.18-1.59-.06c-.53-.24-.89-.62-1.09-1.16s-.18-1.06.06-1.59Z"/>
        <path class="cls-1" d="M460.07,189.67c-1.27-.66-2.11-1.56-2.52-2.71-.41-1.14-.31-2.31.31-3.5l4.33-8.32c.61-1.17,1.46-1.89,2.57-2.18,1.1-.28,2.33-.07,3.67.63l4.9,2.55c1.29.67,2.14,1.55,2.57,2.64.43,1.09.34,2.21-.26,3.36l-4.34,8.34c-.59,1.13-1.48,1.86-2.69,2.19-1.2.33-2.42.18-3.65-.46l-4.9-2.55ZM460.97,184.02c-.39.75-.53,1.38-.4,1.87.12.49.52.91,1.19,1.26l4.31,2.24c1.27.66,2.25.32,2.95-1.03l3.52-6.78c.67-1.28.37-2.26-.9-2.92l-4.31-2.24c-1.27-.66-2.24-.34-2.91.94l-3.46,6.65Z"/>
        <path class="cls-1" d="M472.57,196.35l7.13-11.42c.84-1.35,1.93-2.11,3.29-2.29,1.01-.13,2.16.2,3.47,1.02l4.06,2.54c1.31.81,2.13,1.71,2.47,2.69.21.63.27,1.28.17,1.94s-.36,1.34-.78,2.02l-7.13,11.42-2.53-1.58,6.91-11.08.44-.71c.09-.18.1-.44.04-.76-.16-.47-.54-.89-1.15-1.27l-4.12-2.57c-.67-.42-1.2-.58-1.6-.49-.4.09-.8.45-1.19,1.08l-6.92,11.08-2.56-1.6Z"/>
        <path class="cls-1" d="M505.57,219.47l-5.45-4.29c-1.12-.89-1.79-1.97-2.01-3.25-.22-1.28.08-2.43.9-3.47l5.53-7.02c.57-.72,1.11-1.22,1.65-1.5s1.16-.37,1.89-.29c1.15.05,2.23.47,3.23,1.26l5.42,4.27-1.87,2.37-5.42-4.27c-.47-.37-.96-.53-1.46-.47s-.94.33-1.31.8l-4.87,6.18c-.37.47-.54,1.01-.5,1.61.04.6.29,1.08.74,1.44l5.39,4.25-1.87,2.37Z"/>
        <path class="cls-1" d="M511.41,224.58c-1.06-.96-1.64-2.05-1.75-3.26-.11-1.21.29-2.31,1.19-3.3l6.3-6.95c.89-.98,1.9-1.46,3.04-1.45s2.27.52,3.39,1.54l4.09,3.71c1.08.98,1.68,2.05,1.82,3.21.13,1.16-.23,2.22-1.1,3.18l-6.32,6.97c-.86.94-1.91,1.42-3.15,1.43-1.25.01-2.39-.45-3.41-1.38l-4.09-3.71ZM513.71,219.34c-.57.63-.86,1.19-.87,1.7,0,.51.27,1.01.83,1.53l3.6,3.26c1.06.96,2.1.87,3.12-.25l5.13-5.65c.98-1.08.93-2.09-.12-3.05l-3.6-3.26c-1.06-.96-2.08-.9-3.05.17l-5.04,5.55Z"/>
        <path class="cls-1" d="M521.86,234.13l9.92-9.14c1.08-1,2.16-1.51,3.24-1.53,1.08-.02,2.06.45,2.95,1.42l1.86,2.02c.33.36.63.81.88,1.33.25.52.4.91.43,1.15.03.25,0,.63-.11,1.14l.97-.03c.89.15,1.75.67,2.57,1.55l1.84,1.99c1.88,2.04,1.68,4.1-.59,6.19l-9.93,9.14-2.06-2.24,9.8-9.03c.84-.77.86-1.6.06-2.47l-1.61-1.75c-.66-.72-1.47-.65-2.41.22l-9.65,8.89-2.06-2.24,9.63-8.87c.95-.87,1.01-1.77.18-2.67l-1.63-1.77c-.42-.46-.82-.7-1.2-.71-.38-.02-.8.19-1.26.61l-9.78,9.01-2.04-2.22Z"/>
        <path class="cls-1" d="M533.6,255.97l15.38-11.81c1.19-.91,2.34-1.29,3.47-1.12,1.12.16,2.14.84,3.05,2.02l3.47,4.52c.91,1.18,1.32,2.34,1.22,3.48-.1,1.13-.71,2.13-1.82,2.99l-6.88,5.28c-1.13.87-2.35,1.24-3.66,1.12s-2.36-.71-3.16-1.75l-4.55-5.92-4.68,3.59-1.83-2.39ZM544.15,251.67c-.46.35-.76.77-.88,1.27-.13.49-.04.93.26,1.33l3.49,4.54c.31.41.7.63,1.15.68.46.04.9-.1,1.32-.42l6.8-5.22c.9-.69,1.03-1.46.4-2.29l-3.28-4.27c-.87-1.13-1.79-1.33-2.77-.58l-6.48,4.98Z"/>
        <path class="cls-1" d="M564.87,257.6l5.84,8.98c.45.69.73,1.24.84,1.65.11.41.09.9-.03,1.48-.13.58-.36,1.11-.69,1.61-.33.5-.74.9-1.23,1.22l-7.8,5.08c-1.01.66-2.15.87-3.43.63-1.27-.24-2.23-.84-2.86-1.82l-3.31-5.08c-.66-1.01-.83-2.18-.52-3.5.31-1.32,1-2.33,2.07-3.02l1.82-1.19c1.52-.99,2.9-1.41,4.14-1.28,1.25.13,2.27.82,3.07,2.05l4.07,6.26.98-.64c.71-.46.74-1.2.08-2.21l-5.59-8.59,2.53-1.65ZM554.49,268.79c0,.37.24.93.72,1.65l2.23,3.42c.5.77.88,1.2,1.16,1.29.27.09.57.11.9.07s.59-.12.78-.25l2.44-1.59c.5-.33.79-.77.85-1.33s-.12-1.16-.53-1.79l-2.28-3.51c-.39-.6-.86-.99-1.4-1.16-.54-.18-1.07-.11-1.57.22l-2.44,1.59c-.17.11-.34.3-.52.58-.18.28-.29.55-.33.81Z"/>
        <path class="cls-1" d="M559.87,283.41l11.82-6.44c1.39-.76,2.72-.89,3.99-.38.94.38,1.78,1.24,2.52,2.59l2.29,4.2c.74,1.35,1.01,2.54.83,3.55-.13.65-.4,1.24-.81,1.77-.41.53-.97.99-1.67,1.37l-11.82,6.44-1.43-2.62,11.47-6.25.73-.4c.17-.12.3-.33.41-.64.09-.49-.03-1.04-.38-1.68l-2.32-4.27c-.38-.69-.76-1.09-1.16-1.21s-.92,0-1.56.35l-11.47,6.25-1.44-2.65Z"/>
        <path class="cls-1" d="M563.34,302.39l2.75-1.23,4.1,9.17c.5,1.12,1.33,1.42,2.49.9l.89-.4-3.08-6.88c-.51-1.14-.55-2.26-.11-3.36.44-1.1,1.23-1.9,2.37-2.42l12.5-5.6,1.23,2.75-11.74,5.25c-1.36.61-1.76,1.56-1.19,2.84l1.93,4.31c.56,1.24,1.41,1.6,2.58,1.08l12.04-5.39,1.23,2.75-17.27,7.73c-1.47.66-2.78.79-3.93.4s-2.03-1.26-2.63-2.6l-4.17-9.32Z"/>
      </g>
      <g>
        <g>
          <path class="cls-1" d="M224.11,429.61s-16.34,0-9.29-18.57c7.06-18.57,7.8-21.17,10.03-23.4,2.23-2.23,8.02-7.39,21.74-12.14l13.54-3.52s22.16-8.09,12.49-32.19c0,0-8.92-14.87-17.34-26.66,0,0-26.72-48.38,7.22-104.47,0,0,5.54,30.09,38.75,59.7,0,0,32.26,27.92,31.05,46.94,0,0,.48,21.9-29.85,43.57,0,0-22.39,14.68-45.01,16.61,0,0-29.61,8.67-32.26,17.33,0,0-8.42,16.37.72,11.79,0,0-.03,4.89,6.34,4.42,0,0,4.36-4.13,6.01-1.77l.35,4.72s11.79-5.89,20.04-4.13c0,0,10.61,2.24,11.79,2.83,0,0,.24,1.53-3.77,1.53,0,0,19.1,6.37,26.64,10.26,0,0-3.3-5.31-12.97-8.96,0,0,13.44,0,20.87,2.48l-22.99-16.86s3.18-3.07,12.26,1.18c0,0,11.79,6.37,17.33,3.07,0,0-16.15-14.97-33.95-16.86,0,0,22.64-3.3,23.11-11.2,0,0-10.61,4.6-22.28,1.65,0,0,46.66-9.32,62.36-60.63,0,0,1.57-31.94,45.55-58.11l90.6-43.69s17.7-8.15,19.67-11.24c0,0,8.71,25.01-19.11,39.06,0,0-38.78,16.3-43.27,24.73,0,0,31.19-17.14,56.48-20.51l-4.21,31.75s-.56,19.39-25.01,21.35c0,0-34.56,5.62-40.74,15.17l59.57-12.64s-8.71,23.04-10.12,25.29c-1.2,1.93-8.81,9.63-19.1,13.74-2.98,1.19-6.19,1.67-9.39,1.77-7.56.22-23.68,1.26-30.24,6.13,0,0,42.71-1.97,44.39-2.81l-18.83,20.79s-4.78,8.99-22.48,8.71c0,0-30.97-1.37-36.71,5.15,0,0,30.64-3.78,41.2.13,0,0-7.3,9.78-32.6,13.82,0,0-25.95,4.17-25.43,16.69.52,12.52,16.69,17.08,25.03,16.95,8.34-.13,19.3-1.43,22.82-3.78,3.52-2.35,3.26,1.83,1.56,1.96-1.7.13-15.65,8.74-17.73,8.87,0,0,8.61,9.26,32.6-1.3,0,0,16.69-9,18.38-12.39,0,0-2.61,10.04-4.04,12.65,0,0,23.86-9.52,29.86-13.04,0,0-2.61,13.69-20.21,25.82,0,0,12.65-2.74,15.91-4.82,0,0-3.65,9.78-20.73,18.91,0,0,6.4,1.41,9.81-.64,0,0-1.54,18.6-44.36,17.06,0,0,12.45,5.97,25.76,3.07,0,0-20.3,16.72-58.69,9.38l1.19,3.92-23.89-11.26s-1.02.68.68,3.24c0,0-.51,6.14-7.85-5.63,0,0-2.56-10.75-11.43-11.6,0,0,.34,18.94-3.41,22.52,0,0-2.22-1.02-2.05-9.21,0,0-9.72,18.94-11.43,20.81,0,0-.17-3.92.34-7.34,0,0-15.35,5.97-26.27,1.02,0,0-8.19-.85-10.58,4.78,0,0,7.34,10.75,1.54,16.72,0,0-5.12-2.56-9.38-17.06,0,0-8.7,6.65-13.14,1.36,0,0-2.56-2.56-6.48-.34,0,0,3.07-5.29,8.53-5.46,0,0-4.78-3.24-7.51-7.68,0,0-5.29-2.9-7.85,0,0,0,5.8-8.53,14.67-2.05,0,0,7.17,7.51,19.96,2.9,0,0,17.23-9.04,18.26-25.93,0,0,1.54,2.73,1.36,9.38,0,0,4.27-10.24,4.27-18.26,0,0,2.73,4.09,3.24,10.58,0,0,4.44-12.8-.51-19.79,0,0-8.19,14.5-21.33,18.26,0,0-15.53,2.22-11.77,8.19,0,0,8.02,8.36,4.27,15.18l-11.94-12.62-15.53,4.09,4.95-8.53-13.65-4.61s2.39-6.65,11.77-2.22c0,0,25.08,3.58,25.08-21.84l5.12,6.65-2.9-6.99,5.46,2.39-5.29-8.02,7.34,3.07s-11.43-24.57-35.66-25.59c0,0-27.06-1.22-27.35,16.28Z"/>
          <path class="cls-1" d="M227.38,402.93s6.44-7.47,6.57-9.14c0,0,1.67,5.8-1.42,8.76,0,0-6.05,4.12-5.15.39Z"/>
        </g>
        <g>
          <path class="cls-3" d="M252.94,595.05h-36.08c-2.6,0-4.78-.84-6.53-2.54-1.75-1.69-2.63-3.8-2.63-6.34,0-1.76.61-3.51,1.84-5.27l32.55-45.92h-33.51v-10.24h36.95c2.47,0,4.47.76,6,2.29,1.53,1.53,2.29,3.53,2.29,6,0,1.95-.62,3.8-1.85,5.56l-32.76,46.22h33.74v10.24Z"/>
          <path class="cls-1" d="M255.87,595.05l23.3-63.67c1.04-2.79,2.13-4.73,3.26-5.8s2.71-1.61,4.73-1.61c2.21,0,3.9.52,5.07,1.56,1.17,1.04,2.31,2.99,3.41,5.85l23.2,63.67-10.99.03-5.24-14.65h-30.5l-5.35,14.62h-10.91ZM287.15,538.24l-11.28,31.94h22.92l-11.64-31.94Z"/>
          <path class="cls-1" d="M324.22,595.05v-70.3h35.49c4.42,0,8.22,1.72,11.41,5.15,1.3,1.43,2.18,2.79,2.63,4.09.45,1.3.68,3.08.68,5.35v12.16c0,3.57-1.35,6.73-4.05,9.48-2.7,2.76-5.8,4.14-9.31,4.14h-11.89l25.84,29.93-13.53-.02-25.34-29.35c-.86-.92-1.29-2.09-1.29-3.53,0-2.22.68-3.99,2.04-5.3,1.36-1.31,3.21-1.96,5.54-1.96h15.35c1.75,0,3.27-.55,4.57-1.65,1.3-1.1,1.94-2.42,1.94-3.98v-7.76c0-4.33-2.1-6.5-6.32-6.5h-23.62v60.06h-10.14Z"/>
          <path class="cls-1" d="M430.59,595.05h-30.13c-4.29,0-7.93-1.66-10.92-4.97-2.99-3.31-4.48-7.28-4.48-11.89v-36.08c0-5.2,1.46-9.39,4.39-12.58,2.93-3.18,6.82-4.78,11.7-4.78h29.64v10.24h-28.28c-4.87,0-7.31,2.44-7.31,7.31v35c0,2.14.68,3.94,2.05,5.36,1.37,1.43,3.12,2.15,5.26,2.15h28.08v10.24Z"/>
          <path class="cls-1" d="M462.47,595.05c-4.94,0-8.48-.32-10.63-.98-2.14-.65-4.19-2.05-6.14-4.19-3.06-3.25-4.58-8.09-4.58-14.53v-30.91c0-3.51.34-6.32,1.02-8.43.68-2.11,1.92-4.18,3.71-6.19,1.79-2.01,3.8-3.36,6.05-4.04,2.24-.69,5.77-1.03,10.58-1.03h7.6c5,0,8.53.32,10.58.98,2.05.65,4.11,2.05,6.19,4.19,3.12,3.31,4.68,8.16,4.68,14.53v30.91c0,3.51-.33,6.32-.98,8.43-.65,2.11-1.9,4.18-3.75,6.19-1.85,2.01-3.9,3.36-6.14,4.04-2.24.68-5.77,1.03-10.58,1.03h-7.6ZM451.26,575.84c0,3.51.65,5.88,1.95,7.11,1.3,1.24,3.87,1.85,7.7,1.85h10.82c3.77,0,6.32-.6,7.65-1.8,1.33-1.2,2-3.56,2-7.07v-31.98c0-3.38-.68-5.72-2.05-7.02-1.37-1.3-3.9-1.95-7.61-1.95h-10.82c-3.71,0-6.24.62-7.61,1.85-1.36,1.23-2.05,3.61-2.05,7.11v31.89Z"/>
        </g>
      </g>
    </g>
  </g>
  <g>
    <g>
      <path class="cls-2" d="M972.14,451.16h-123.06l-20.36,58.87h-65.07l111.11-309.42h72.15l111.11,309.42h-65.51l-20.36-58.87ZM910.61,272.33l-44.71,129.26h89.42l-44.71-129.26Z"/>
      <path class="cls-2" d="M1099.61,182.47h61.97v327.57h-61.97V182.47Z"/>
      <path class="cls-3" d="M1530.3,248.87l-138.99,208.93h138.99v52.23h-210.71v-47.81l138.11-208.93h-138.11v-52.23h210.71v47.81Z"/>
      <path class="cls-2" d="M1679.02,260.82c39.4,0,66.4,18.59,81.01,38.95v-34.97h62.41v245.23h-62.41v-35.86c-14.61,21.25-42.5,39.84-81.45,39.84-61.97,0-111.55-50.91-111.55-127.48s49.58-125.71,111.99-125.71ZM1694.95,315.27c-33.2,0-64.63,24.79-64.63,71.27s31.43,73.04,64.63,73.04,65.07-25.67,65.07-72.16-30.99-72.15-65.07-72.15Z"/>
      <path class="cls-2" d="M1883.06,182.47h61.97v112.88c15.93-20.8,43.38-34.08,76.14-34.08,55.33,0,95.61,37.18,95.61,104.91v143.86h-61.97v-135.45c0-39.4-21.69-60.64-54.45-60.64s-55.33,21.25-55.33,60.64v135.45h-61.97V182.47Z"/>
      <path class="cls-2" d="M2237.62,510.04h-61.97v-245.23h61.97v38.07c15.49-25.23,41.16-41.61,75.25-41.61v65.07h-16.38c-36.74,0-58.87,14.17-58.87,61.53v122.17Z"/>
      <path class="cls-2" d="M2450.52,260.82c39.4,0,66.4,18.59,81.01,38.95v-34.97h62.41v245.23h-62.41v-35.86c-14.61,21.25-42.5,39.84-81.45,39.84-61.97,0-111.55-50.91-111.55-127.48s49.58-125.71,111.99-125.71ZM2466.46,315.27c-33.2,0-64.63,24.79-64.63,71.27s31.43,73.04,64.63,73.04,65.07-25.67,65.07-72.16-30.99-72.15-65.07-72.15Z"/>
    </g>
    <g>
      <path class="cls-2" d="M798.02,616.37h-23.57l-3.9,11.28h-12.46l21.28-59.27h13.82l21.28,59.27h-12.55l-3.9-11.28ZM786.23,582.11l-8.56,24.76h17.13l-8.56-24.76Z"/>
      <path class="cls-2" d="M822.44,568.46h11.87v59.19h-11.87v-59.19Z"/>
      <path class="cls-2" d="M868.23,568.46c14.24,0,21.37,8.23,21.37,18.15,0,7.21-3.99,14.5-13.48,17.04l14.16,23.99h-13.74l-13.06-23.06h-5.6v23.06h-11.87v-59.19h22.22ZM867.81,578.3h-9.92v17.38h9.92c6.61,0,9.58-3.48,9.58-8.82s-2.97-8.56-9.58-8.56Z"/>
      <path class="cls-2" d="M947.69,567.7c13.14,0,23.82,7.04,27.81,19.16h-13.65c-2.8-5.68-7.89-8.48-14.24-8.48-10.34,0-17.72,7.55-17.72,19.59s7.38,19.59,17.72,19.59c6.36,0,11.45-2.8,14.24-8.56h13.65c-3.99,12.21-14.67,19.16-27.81,19.16-17.04,0-30.02-12.46-30.02-30.18s12.97-30.27,30.02-30.27Z"/>
      <path class="cls-2" d="M1013.16,628.24c-16.7,0-30.36-12.55-30.36-30.35s13.65-30.27,30.36-30.27,30.27,12.55,30.27,30.27-13.48,30.35-30.27,30.35ZM1013.16,617.64c10.68,0,18.06-7.72,18.06-19.76s-7.38-19.59-18.06-19.59-18.15,7.54-18.15,19.59,7.38,19.76,18.15,19.76Z"/>
      <path class="cls-2" d="M1102.87,568.38v59.27h-11.87l-26.88-40.61v40.61h-11.87v-59.27h11.87l26.88,40.7v-40.7h11.87Z"/>
      <path class="cls-2" d="M1166.47,598.14c0,17.89-12.3,29.51-31.2,29.51h-20.69v-59.19h20.69c18.91,0,31.2,11.7,31.2,29.68ZM1134.85,617.55c12.46,0,19.5-7.12,19.5-19.42s-7.04-19.67-19.5-19.67h-8.39v39.09h8.39Z"/>
      <path class="cls-2" d="M1175.38,568.46h11.87v59.19h-11.87v-59.19Z"/>
      <path class="cls-2" d="M1195.82,568.46h43.41v9.58h-15.77v49.6h-11.87v-49.6h-15.77v-9.58Z"/>
      <path class="cls-2" d="M1247.88,568.46h11.87v59.19h-11.87v-59.19Z"/>
      <path class="cls-2" d="M1298.93,628.24c-16.7,0-30.36-12.55-30.36-30.35s13.65-30.27,30.36-30.27,30.27,12.55,30.27,30.27-13.48,30.35-30.27,30.35ZM1298.93,617.64c10.68,0,18.06-7.72,18.06-19.76s-7.38-19.59-18.06-19.59-18.15,7.54-18.15,19.59,7.38,19.76,18.15,19.76Z"/>
      <path class="cls-2" d="M1388.65,568.38v59.27h-11.87l-26.88-40.61v40.61h-11.87v-59.27h11.87l26.88,40.7v-40.7h11.87Z"/>
      <path class="cls-2" d="M1400.36,568.46h11.87v59.19h-11.87v-59.19Z"/>
      <path class="cls-2" d="M1474.55,568.38v59.27h-11.87l-26.88-40.61v40.61h-11.87v-59.27h11.87l26.88,40.7v-40.7h11.87Z"/>
      <path class="cls-2" d="M1541.12,586.27h-13.65c-2.71-5-7.63-7.63-13.91-7.63-10.6,0-17.98,7.55-17.98,19.34s7.46,19.5,18.49,19.5c9.16,0,15-5.25,16.79-13.65h-20.35v-9.07h32.05v10.34c-2.37,12.04-13.14,23.06-28.91,23.06-17.21,0-30.27-12.46-30.27-30.18s13.06-30.27,30.19-30.27c13.23,0,23.74,6.7,27.56,18.57Z"/>
      <path class="cls-2" d="M1607.86,616.37h-23.57l-3.9,11.28h-12.47l21.29-59.27h13.82l21.28,59.27h-12.55l-3.9-11.28ZM1596.07,582.11l-8.56,24.76h17.13l-8.56-24.76Z"/>
      <path class="cls-2" d="M1682.91,568.38v59.27h-11.87l-26.88-40.61v40.61h-11.87v-59.27h11.87l26.88,40.7v-40.7h11.87Z"/>
      <path class="cls-2" d="M1746.51,598.14c0,17.89-12.3,29.51-31.2,29.51h-20.69v-59.19h20.69c18.91,0,31.2,11.7,31.2,29.68ZM1714.88,617.55c12.46,0,19.5-7.12,19.5-19.42s-7.04-19.67-19.5-19.67h-8.39v39.09h8.39Z"/>
      <path class="cls-2" d="M1797.81,568.46c14.24,0,21.37,8.23,21.37,18.15,0,7.21-3.98,14.5-13.48,17.04l14.16,23.99h-13.73l-13.06-23.06h-5.59v23.06h-11.87v-59.19h22.21ZM1797.39,578.3h-9.92v17.38h9.92c6.62,0,9.58-3.48,9.58-8.82s-2.97-8.56-9.58-8.56Z"/>
      <path class="cls-2" d="M1864.3,578.04h-22.47v14.84h19.92v9.41h-19.92v15.68h22.47v9.67h-34.34v-59.27h34.34v9.66Z"/>
      <path class="cls-2" d="M1875.07,568.46h36.54v9.58h-24.67v15.18h18.91v9.41h-18.91v25.01h-11.87v-59.19Z"/>
      <path class="cls-2" d="M1942.22,568.46c14.24,0,21.37,8.23,21.37,18.15,0,7.21-3.98,14.5-13.48,17.04l14.16,23.99h-13.73l-13.06-23.06h-5.59v23.06h-11.87v-59.19h22.21ZM1941.8,578.3h-9.92v17.38h9.92c6.61,0,9.58-3.48,9.58-8.82s-2.97-8.56-9.58-8.56Z"/>
      <path class="cls-2" d="M1974.37,568.46h11.87v59.19h-11.87v-59.19Z"/>
      <path class="cls-2" d="M2052.8,586.27h-13.65c-2.71-5-7.63-7.63-13.91-7.63-10.6,0-17.98,7.55-17.98,19.34s7.46,19.5,18.49,19.5c9.16,0,15.01-5.25,16.79-13.65h-20.35v-9.07h32.05v10.34c-2.37,12.04-13.15,23.06-28.91,23.06-17.21,0-30.27-12.46-30.27-30.18s13.06-30.27,30.19-30.27c13.23,0,23.74,6.7,27.56,18.57Z"/>
      <path class="cls-2" d="M2097.41,578.04h-22.47v14.84h19.92v9.41h-19.92v15.68h22.47v9.67h-34.34v-59.27h34.34v9.66Z"/>
      <path class="cls-2" d="M2130.4,568.46c14.24,0,21.37,8.23,21.37,18.15,0,7.21-3.98,14.5-13.48,17.04l14.16,23.99h-13.73l-13.06-23.06h-5.59v23.06h-11.87v-59.19h22.21ZM2129.98,578.3h-9.92v17.38h9.92c6.61,0,9.58-3.48,9.58-8.82s-2.97-8.56-9.58-8.56Z"/>
      <path class="cls-2" d="M2198.83,616.37h-23.57l-3.9,11.28h-12.47l21.29-59.27h13.82l21.28,59.27h-12.55l-3.9-11.28ZM2187.04,582.11l-8.56,24.76h17.13l-8.56-24.76Z"/>
      <path class="cls-2" d="M2220.12,568.46h43.41v9.58h-15.77v49.6h-11.87v-49.6h-15.77v-9.58Z"/>
      <path class="cls-2" d="M2272.19,568.46h11.87v59.19h-11.87v-59.19Z"/>
      <path class="cls-2" d="M2323.23,628.24c-16.7,0-30.36-12.55-30.36-30.35s13.65-30.27,30.36-30.27,30.27,12.55,30.27,30.27-13.48,30.35-30.27,30.35ZM2323.23,617.64c10.68,0,18.06-7.72,18.06-19.76s-7.38-19.59-18.06-19.59-18.15,7.54-18.15,19.59,7.38,19.76,18.15,19.76Z"/>
      <path class="cls-2" d="M2412.95,568.38v59.27h-11.87l-26.88-40.61v40.61h-11.87v-59.27h11.87l26.88,40.7v-40.7h11.87Z"/>
      <path class="cls-2" d="M2471.97,567.7c13.14,0,23.83,7.04,27.81,19.16h-13.65c-2.8-5.68-7.89-8.48-14.24-8.48-10.35,0-17.72,7.55-17.72,19.59s7.38,19.59,17.72,19.59c6.36,0,11.45-2.8,14.24-8.56h13.65c-3.98,12.21-14.67,19.16-27.81,19.16-17.04,0-30.02-12.46-30.02-30.18s12.97-30.27,30.02-30.27Z"/>
      <path class="cls-2" d="M2537.44,628.24c-16.7,0-30.36-12.55-30.36-30.35s13.65-30.27,30.36-30.27,30.27,12.55,30.27,30.27-13.48,30.35-30.27,30.35ZM2537.44,617.64c10.68,0,18.06-7.72,18.06-19.76s-7.38-19.59-18.06-19.59-18.15,7.54-18.15,19.59,7.38,19.76,18.15,19.76Z"/>
      <path class="cls-2" d="M2581.79,628.24c-4.32,0-7.38-3.05-7.38-6.95s3.05-6.95,7.38-6.95,7.21,3.05,7.21,6.95-3.05,6.95-7.21,6.95Z"/>
    </g>
  </g>
</svg>